<svg width="22" height="22" viewBox="0 0 22 22" fill="none" xmlns="http://www.w3.org/2000/svg">
<path d="M22 5.5V22H0V5.5H5.55371C5.53939 5.38542 5.52865 5.27083 5.52148 5.15625C5.51432 5.04167 5.50716 4.92708 5.5 4.8125C5.5 4.14648 5.62533 3.52344 5.87598 2.94336C6.12663 2.36328 6.47038 1.85124 6.90723 1.40723C7.34408 0.963216 7.85254 0.619466 8.43262 0.375977C9.0127 0.132487 9.63932 0.00716146 10.3125 0C10.9785 0 11.6016 0.125326 12.1816 0.375977C12.7617 0.626628 13.2738 0.970378 13.7178 1.40723C14.1618 1.84408 14.5055 2.35254 14.749 2.93262C14.9925 3.5127 15.1178 4.13932 15.125 4.8125C15.125 4.92708 15.1214 5.04167 15.1143 5.15625C15.1071 5.27083 15.0928 5.38542 15.0713 5.5H22ZM10.3125 1.375C9.83984 1.375 9.39583 1.46452 8.98047 1.64355C8.5651 1.82259 8.19987 2.06966 7.88477 2.38477C7.56966 2.69987 7.32259 3.0651 7.14355 3.48047C6.96452 3.89583 6.875 4.33984 6.875 4.8125C6.875 5.28516 6.96452 5.72917 7.14355 6.14453C7.32259 6.5599 7.56608 6.92513 7.87402 7.24023C8.18197 7.55534 8.5472 7.80241 8.96973 7.98145C9.39225 8.16048 9.83984 8.25 10.3125 8.25C10.7852 8.25 11.2292 8.16048 11.6445 7.98145C12.0599 7.80241 12.4215 7.55892 12.7295 7.25098C13.0374 6.94303 13.2845 6.5778 13.4707 6.15527C13.6569 5.73275 13.75 5.28516 13.75 4.8125C13.75 4.33984 13.6605 3.89583 13.4814 3.48047C13.3024 3.0651 13.0553 2.70345 12.7402 2.39551C12.4251 2.08757 12.0599 1.84049 11.6445 1.6543C11.2292 1.4681 10.7852 1.375 10.3125 1.375ZM20.625 6.875H14.6631C14.484 7.2474 14.262 7.59473 13.9971 7.91699C13.7321 8.23926 13.4277 8.51497 13.084 8.74414C13.8216 9.0306 14.4876 9.41016 15.082 9.88281C15.6764 10.3555 16.1777 10.8997 16.5859 11.5156C16.9941 12.1315 17.3128 12.8047 17.542 13.5352C17.7712 14.2656 17.8822 15.0247 17.875 15.8125V16.5H16.5V15.8125C16.5 14.9316 16.3424 14.1152 16.0273 13.3633C15.7122 12.6113 15.279 11.9561 14.7275 11.3975C14.1761 10.8389 13.5244 10.4056 12.7725 10.0977C12.0205 9.78971 11.2005 9.63216 10.3125 9.625C9.51758 9.625 8.76562 9.76107 8.05664 10.0332C7.34766 10.3053 6.71745 10.6885 6.16602 11.1826C5.61458 11.6768 5.16341 12.2568 4.8125 12.9229C4.46159 13.5889 4.24316 14.3229 4.15723 15.125H11.1182L8.64746 12.6543L9.625 11.6875L13.75 15.8125L9.625 19.9375L8.64746 18.9707L11.1182 16.5H2.75V15.8125C2.75 15.0247 2.861 14.2692 3.08301 13.5459C3.30501 12.8226 3.62728 12.153 4.0498 11.5371C4.47233 10.9212 4.97721 10.377 5.56445 9.9043C6.15169 9.43164 6.81413 9.0485 7.55176 8.75488C6.84994 8.26074 6.31999 7.63411 5.96191 6.875H1.375V20.625H20.625V6.875Z" fill="white"/>
</svg>
