<svg width="53" height="34" viewBox="0 0 53 34" fill="none" xmlns="http://www.w3.org/2000/svg">
<path d="M4.12429 6.81294C4.17746 6.20242 4.4583 5.63423 4.91104 5.22122C5.36379 4.8082 5.9553 4.58057 6.56813 4.58352C7.14938 4.58352 7.68671 4.78502 8.10908 5.12215C8.5612 4.77304 9.11628 4.58362 9.6875 4.58352C10.2817 4.58352 10.8293 4.78373 11.2659 5.12215C11.7031 4.77204 12.2468 4.58197 12.8069 4.58352C14.0675 4.58352 15.1409 5.53548 15.2507 6.81294C15.3592 8.07232 15.5 10.0201 15.5 11.6877C15.5001 12.6893 15.2414 13.674 14.749 14.5462C14.2565 15.4184 13.547 16.1485 12.6893 16.6658C12.4026 16.8389 12.3277 17.0533 12.3354 17.1644C12.4995 19.6624 12.9167 26.144 12.9167 27.1838C12.9167 28.0402 12.5765 28.8616 11.9709 29.4672C11.3653 30.0728 10.5439 30.413 9.6875 30.413C8.83107 30.413 8.00972 30.0728 7.40413 29.4672C6.79855 28.8616 6.45833 28.0402 6.45833 27.1838C6.45833 26.144 6.87554 19.6624 7.03958 17.1644C7.04604 17.052 6.97242 16.8389 6.68567 16.6658C5.82796 16.1485 5.11848 15.4184 4.62603 14.5462C4.13358 13.674 3.87488 12.6893 3.875 11.6877C3.875 10.0214 4.01579 8.07232 4.12429 6.81294ZM12.2708 11.3648C12.2708 11.6217 12.1688 11.8681 11.9871 12.0498C11.8054 12.2315 11.559 12.3335 11.3021 12.3335C11.0452 12.3335 10.7988 12.2315 10.6171 12.0498C10.4354 11.8681 10.3333 11.6217 10.3333 11.3648V7.16686C10.3333 6.99557 10.2653 6.8313 10.1442 6.71018C10.0231 6.58907 9.85879 6.52102 9.6875 6.52102C9.51621 6.52102 9.35194 6.58907 9.23083 6.71018C9.10971 6.8313 9.04167 6.99557 9.04167 7.16686V11.3648C9.04167 11.6217 8.9396 11.8681 8.75793 12.0498C8.57625 12.2315 8.32985 12.3335 8.07292 12.3335C7.81599 12.3335 7.56958 12.2315 7.38791 12.0498C7.20623 11.8681 7.10417 11.6217 7.10417 11.3648V7.05707C7.10417 6.9149 7.04769 6.77855 6.94716 6.67803C6.84664 6.5775 6.71029 6.52102 6.56813 6.52102C6.44047 6.5188 6.31667 6.56476 6.2214 6.64975C6.12612 6.73473 6.06637 6.85249 6.05404 6.97957C5.94683 8.22602 5.8125 10.1054 5.8125 11.6877C5.8125 13.0956 6.56167 14.3279 7.688 15.0073C8.39196 15.4335 9.04038 16.2473 8.97321 17.2909C8.80529 19.8484 8.39583 26.2267 8.39583 27.1851C8.39583 27.5277 8.53192 27.8562 8.77415 28.0985C9.01639 28.3407 9.34493 28.4768 9.6875 28.4768C10.0301 28.4768 10.3586 28.3407 10.6008 28.0985C10.8431 27.8562 10.9792 27.5277 10.9792 27.1851C10.9792 26.2267 10.5697 19.8484 10.4018 17.2909C10.3346 16.2473 10.983 15.4335 11.687 15.0073C12.2592 14.6626 12.7327 14.1758 13.0613 13.5941C13.3899 13.0125 13.5626 12.3557 13.5625 11.6877C13.5625 10.1067 13.4282 8.22602 13.321 6.97957C13.3086 6.85249 13.2489 6.73473 13.1536 6.64975C13.0583 6.56476 12.9345 6.5188 12.8069 6.52102C12.6647 6.52102 12.5284 6.5775 12.4278 6.67803C12.3273 6.77855 12.2708 6.9149 12.2708 7.05707V11.3648ZM16.7917 12.0106C16.7917 10.0408 17.5742 8.15172 18.967 6.75887C20.3599 5.36602 22.249 4.58352 24.2188 4.58352C24.4757 4.58352 24.7221 4.68559 24.9038 4.86726C25.0854 5.04894 25.1875 5.29535 25.1875 5.55227V16.5314C25.1875 16.9422 25.3244 18.9791 25.4781 21.2357L25.4846 21.3429C25.6525 23.8074 25.8333 26.4876 25.8333 27.1838C25.8333 28.0402 25.4931 28.8616 24.8875 29.4672C24.2819 30.0728 23.4606 30.413 22.6042 30.413C21.7477 30.413 20.9264 30.0728 20.3208 29.4672C19.7152 28.8616 19.375 28.0402 19.375 27.1838C19.375 26.5199 19.5403 23.8113 19.7005 21.3274C19.7806 20.0732 19.862 18.8577 19.9227 17.9561L19.9524 17.5002H19.0521C18.7552 17.5002 18.4613 17.4417 18.1871 17.3281C17.9128 17.2145 17.6636 17.048 17.4537 16.8381C17.2438 16.6282 17.0773 16.379 16.9637 16.1048C16.8501 15.8306 16.7917 15.5366 16.7917 15.2398V12.0106ZM21.9557 16.5986L21.9286 17.0042C21.8268 18.4868 21.7282 19.9696 21.6328 21.4527C21.4701 23.9844 21.3125 26.6013 21.3125 27.1838C21.3125 27.5264 21.4486 27.8549 21.6908 28.0972C21.9331 28.3394 22.2616 28.4755 22.6042 28.4755C22.9467 28.4755 23.2753 28.3394 23.5175 28.0972C23.7598 27.8549 23.8958 27.5264 23.8958 27.1838C23.8958 26.5638 23.7176 23.9211 23.5445 21.3661L23.5355 21.2318C23.3895 19.0889 23.25 17.0184 23.25 16.5314V6.60627C21.9821 6.83358 20.8346 7.49948 20.0081 8.48745C19.1817 9.47542 18.729 10.7225 18.7292 12.0106V15.2398C18.7292 15.418 18.8738 15.5627 19.0521 15.5627H20.9896C21.1224 15.5627 21.2539 15.5901 21.3757 15.6431C21.4975 15.6961 21.6072 15.7735 21.6978 15.8707C21.7884 15.9679 21.8581 16.0826 21.9024 16.2078C21.9468 16.3331 21.965 16.4661 21.9557 16.5986Z" fill="white"/>
<g clip-path="url(#clip0_1673_29253)">
<path d="M38.2232 19.4842L36.2624 19.4805L36.21 17.5133L38.1711 17.5308L38.1119 15.5705L36.1579 15.5599L36.1058 13.6066L38.0666 13.6103L38.0145 11.6569L34.0927 11.6357L34.3537 21.4302L38.2756 21.4514L38.2232 19.4842ZM35.4978 27.7042L35.3897 23.3889L32.4518 23.373L32.0795 9.66484L35.0313 9.68079L34.9653 7.72736L33.011 7.70295L32.9522 5.75649L38.8419 5.78831L38.8869 7.7347L36.9332 7.738L36.9714 9.69127L39.9232 9.70722L40.2817 23.4153L37.3437 23.3994L37.5181 29.682L35.4978 27.7042Z" fill="white"/>
</g>
<defs>
<clipPath id="clip0_1673_29253">
<rect width="24" height="24" fill="white" transform="translate(19 17.1499) rotate(-45.6086)"/>
</clipPath>
</defs>
</svg>
