<svg width="31" height="22" viewBox="0 0 31 22" fill="none" xmlns="http://www.w3.org/2000/svg">
<path d="M12.497 2.71391L2.27191 20.4431H22.7221L20.2531 16.1611C20.9369 16.5168 21.6757 16.7547 22.4385 16.8649L24.7247 20.8285C24.7924 20.9457 24.8281 21.0787 24.828 21.2141C24.828 21.3495 24.7923 21.4825 24.7246 21.5997C24.6568 21.7169 24.5594 21.8142 24.4421 21.8818C24.3248 21.9494 24.1918 21.9849 24.0564 21.9847H0.936829C0.801521 21.9847 0.668598 21.9491 0.551419 21.8815C0.434241 21.8138 0.336935 21.7165 0.269283 21.5993C0.20163 21.4821 0.166015 21.3492 0.166016 21.2139C0.166016 21.0786 0.201634 20.9457 0.269288 20.8285L11.8295 0.785285C11.8971 0.668113 11.9944 0.570813 12.1116 0.503164C12.2288 0.435516 12.3617 0.399902 12.497 0.399902C12.6323 0.399902 12.7652 0.435516 12.8824 0.503164C12.9996 0.570813 13.0969 0.668113 13.1646 0.785285L17.0341 7.49385C16.7477 8.21058 16.5843 8.97049 16.5508 9.7416L12.497 2.71391Z" fill="white"/>
<path fill-rule="evenodd" clip-rule="evenodd" d="M21.3481 14.9741C22.0068 15.2527 22.7149 15.3956 23.4301 15.3942C24.6643 15.3965 25.8609 14.9695 26.8148 14.1863L29.838 17.2088L31.0004 16.0464L27.914 12.9599C28.5108 12.0396 28.81 10.958 28.7709 9.86182C28.7319 8.76565 28.3564 7.70806 27.6956 6.83258C27.0348 5.95711 26.1206 5.30618 25.0772 4.96814C24.0337 4.63009 22.9115 4.62132 21.8628 4.943C20.8142 5.26468 19.8899 5.90124 19.2155 6.76627C18.5411 7.63129 18.1492 8.68289 18.093 9.77832C18.0368 10.8737 18.319 11.9599 18.9013 12.8895C19.4836 13.819 20.3379 14.5468 21.3481 14.9741ZM19.7301 10.05C19.7301 11.0313 20.1199 11.9725 20.8138 12.6663C21.5077 13.3602 22.4488 13.75 23.4301 13.75C24.4114 13.75 25.3525 13.3602 26.0464 12.6663C26.7403 11.9725 27.1301 11.0313 27.1301 10.05C27.1301 9.06874 26.7403 8.12763 26.0464 7.43375C25.3525 6.73986 24.4114 6.35004 23.4301 6.35004C22.4488 6.35004 21.5077 6.73986 20.8138 7.43375C20.1199 8.12763 19.7301 9.06874 19.7301 10.05Z" fill="white"/>
<path d="M11.5332 15.8553H13.4603V17.7823H11.5332V15.8553ZM12.4967 8.14307C11.9649 8.14307 11.5332 8.57473 11.5332 9.10661V13.3462C11.5332 13.6017 11.6347 13.8468 11.8154 14.0275C11.9961 14.2082 12.2412 14.3097 12.4967 14.3097C12.7523 14.3097 12.9974 14.2082 13.1781 14.0275C13.3588 13.8468 13.4603 13.6017 13.4603 13.3462V9.10661C13.4603 8.57473 13.0286 8.14307 12.4967 8.14307Z" fill="white"/>
</svg>
