<svg width="722" height="555" viewBox="0 0 722 555" fill="none" xmlns="http://www.w3.org/2000/svg">
<g clip-path="url(#clip0_363_14508)">
<path d="M363.316 392.003C559.092 392.003 717.8 381.513 717.8 368.572C717.8 355.631 559.092 345.141 363.316 345.141C167.54 345.141 8.83203 355.631 8.83203 368.572C8.83203 381.513 167.54 392.003 363.316 392.003Z" fill="#F2F2F2"/>
<path d="M349.73 112.055C291.975 112.055 250.508 149.051 250.508 235.377C250.508 333.213 291.975 359.111 349.73 359.111C407.486 359.111 451.423 330.746 451.423 235.377C451.423 133.431 407.486 112.055 349.73 112.055ZM350.11 326.636C310.108 326.636 289.209 303.204 289.209 235.44C289.209 175.649 310.963 144.119 350.966 144.119C390.968 144.119 412.723 164.83 412.723 235.44C412.722 301.495 390.113 326.636 350.11 326.636Z" fill="#2F2E41"/>
<path d="M215.923 290.873H192.044V220.663C192.044 216.934 190.56 213.358 187.919 210.721C185.278 208.084 181.696 206.603 177.961 206.603H172.366C170.516 206.603 168.685 206.966 166.977 207.673C165.268 208.379 163.716 209.415 162.408 210.721C161.1 212.027 160.063 213.577 159.355 215.282C158.647 216.988 158.283 218.817 158.283 220.663V290.873H90.9278C89.5422 290.873 88.18 290.515 86.9736 289.835C85.7671 289.154 84.7573 288.174 84.0421 286.989C83.3269 285.804 82.9306 284.455 82.8916 283.072C82.8526 281.689 83.1722 280.319 83.8196 279.096L155.108 144.379C155.997 142.699 156.535 140.857 156.691 138.964C156.847 137.071 156.618 135.166 156.016 133.364C155.414 131.562 154.453 129.9 153.191 128.479C151.928 127.058 150.39 125.907 148.67 125.096L144.461 123.112C141.194 121.571 137.458 121.344 134.027 122.477C130.596 123.609 127.732 126.016 126.029 129.198L39.0833 291.594C37.6027 294.359 36.8281 297.446 36.8281 300.582C36.8281 303.086 37.322 305.565 38.2817 307.878C39.2413 310.191 40.6479 312.293 42.4211 314.064C44.1943 315.834 46.2994 317.239 48.6162 318.197C50.933 319.155 53.4161 319.648 55.9238 319.648H158.283V364.044C158.283 366.257 158.72 368.449 159.568 370.494C160.416 372.539 161.66 374.397 163.227 375.962C164.795 377.527 166.656 378.768 168.704 379.615C170.752 380.462 172.947 380.898 175.163 380.898H175.163C177.38 380.898 179.575 380.462 181.623 379.615C183.671 378.768 185.532 377.527 187.1 375.962C188.667 374.397 189.91 372.539 190.759 370.494C191.607 368.449 192.044 366.257 192.044 364.044V319.648H215.923C219.745 319.648 223.41 318.132 226.112 315.434C228.815 312.736 230.333 309.076 230.333 305.26C230.333 301.445 228.815 297.785 226.112 295.087C223.41 292.389 219.745 290.873 215.923 290.873Z" fill="#02BE6A"/>
<path d="M658.103 290.873H634.223V220.663C634.223 216.934 632.74 213.358 630.099 210.721C627.458 208.084 623.876 206.603 620.141 206.603H614.545C612.696 206.603 610.865 206.966 609.156 207.673C607.448 208.379 605.895 209.415 604.588 210.721C603.28 212.027 602.243 213.577 601.535 215.282C600.827 216.988 600.463 218.817 600.463 220.663V290.873H533.107C531.722 290.873 530.36 290.515 529.153 289.835C527.947 289.154 526.937 288.174 526.222 286.989C525.507 285.804 525.11 284.455 525.071 283.072C525.032 281.689 525.352 280.319 525.999 279.096L597.287 144.379C598.176 142.699 598.715 140.857 598.871 138.964C599.027 137.071 598.797 135.166 598.196 133.364C597.594 131.562 596.633 129.9 595.37 128.479C594.108 127.058 592.57 125.907 590.849 125.096L586.641 123.112C583.373 121.571 579.637 121.344 576.206 122.477C572.775 123.609 569.912 126.016 568.208 129.198L481.263 291.594C479.782 294.359 479.008 297.446 479.008 300.582C479.008 305.639 481.02 310.488 484.601 314.064C488.182 317.639 493.039 319.648 498.103 319.648H600.463V364.044C600.463 368.514 602.241 372.801 605.407 375.962C608.573 379.122 612.866 380.898 617.343 380.898C621.82 380.898 626.113 379.122 629.279 375.962C632.445 372.801 634.223 368.514 634.223 364.044V319.648H658.102C661.924 319.648 665.589 318.132 668.292 315.434C670.994 312.736 672.512 309.076 672.512 305.26C672.512 301.445 670.994 297.785 668.292 295.087C665.589 292.389 661.924 290.873 658.103 290.873Z" fill="#02BE6A"/>
<path d="M222.511 282.654H198.632V212.445C198.632 210.598 198.267 208.77 197.56 207.064C196.852 205.358 195.815 203.808 194.507 202.502C193.199 201.196 191.647 200.161 189.938 199.454C188.23 198.748 186.398 198.384 184.549 198.384H178.954C175.219 198.384 171.637 199.865 168.996 202.502C166.355 205.139 164.871 208.715 164.871 212.445V282.654H97.5157C96.1301 282.654 94.7679 282.297 93.5615 281.616C92.355 280.936 91.3452 279.955 90.63 278.77C89.9148 277.585 89.5185 276.236 89.4795 274.853C89.4405 273.47 89.7601 272.101 90.4075 270.877L161.696 136.16C162.584 134.481 163.123 132.639 163.279 130.746C163.435 128.852 163.206 126.947 162.604 125.145C162.002 123.343 161.041 121.681 159.779 120.26C158.516 118.839 156.978 117.689 155.258 116.877L151.049 114.893C147.782 113.353 144.046 113.125 140.615 114.258C137.184 115.391 134.32 117.797 132.617 120.979L45.6712 283.375C44.1906 286.14 43.416 289.228 43.416 292.363V292.363C43.416 297.42 45.4279 302.269 49.009 305.845C52.5901 309.421 57.4472 311.429 62.5117 311.429H164.871V355.825C164.871 358.039 165.308 360.23 166.156 362.275C167.004 364.32 168.248 366.178 169.815 367.743C171.383 369.308 173.244 370.55 175.292 371.397C177.34 372.244 179.535 372.679 181.751 372.679H181.751C186.228 372.679 190.522 370.904 193.687 367.743C196.853 364.582 198.631 360.295 198.631 355.825V311.429H222.511C224.403 311.429 226.277 311.057 228.025 310.334C229.774 309.611 231.362 308.551 232.7 307.215C234.038 305.879 235.1 304.293 235.824 302.548C236.548 300.802 236.921 298.931 236.921 297.042V297.042C236.921 295.152 236.548 293.281 235.824 291.536C235.1 289.79 234.038 288.204 232.7 286.868C231.362 285.532 229.774 284.472 228.025 283.749C226.277 283.026 224.403 282.654 222.511 282.654V282.654Z" stroke="#3F3D56" stroke-miterlimit="10"/>
<path d="M670.454 282.654H646.575V212.445C646.575 208.715 645.091 205.139 642.45 202.502C639.809 199.865 636.227 198.384 632.492 198.384H626.897C625.048 198.384 623.216 198.748 621.508 199.454C619.799 200.161 618.247 201.196 616.939 202.502C615.631 203.808 614.594 205.358 613.886 207.064C613.179 208.77 612.815 210.598 612.815 212.445V282.654H545.459C544.073 282.654 542.711 282.297 541.505 281.616C540.298 280.936 539.289 279.955 538.573 278.77C537.858 277.585 537.462 276.236 537.423 274.853C537.384 273.47 537.704 272.101 538.351 270.877L609.639 136.16C610.528 134.481 611.067 132.639 611.223 130.746C611.379 128.852 611.149 126.947 610.547 125.145C609.946 123.343 608.985 121.681 607.722 120.26C606.459 118.839 604.921 117.689 603.201 116.877L598.993 114.893C595.725 113.353 591.989 113.125 588.558 114.258C585.127 115.391 582.264 117.797 580.56 120.979L493.615 283.375C492.134 286.14 491.359 289.228 491.359 292.363C491.359 297.42 493.371 302.269 496.952 305.845C500.534 309.421 505.391 311.429 510.455 311.429H612.815V355.825C612.815 360.295 614.593 364.582 617.759 367.743C620.924 370.904 625.218 372.679 629.695 372.679V372.679C634.172 372.679 638.465 370.904 641.631 367.743C644.796 364.582 646.575 360.295 646.575 355.825V311.429H670.454C672.347 311.429 674.22 311.057 675.969 310.334C677.717 309.611 679.305 308.551 680.644 307.215C681.982 305.879 683.043 304.293 683.767 302.548C684.491 300.802 684.864 298.931 684.864 297.042V297.042C684.864 293.226 683.346 289.566 680.644 286.868C677.941 284.17 674.276 282.654 670.454 282.654V282.654Z" stroke="#3F3D56" stroke-miterlimit="10"/>
<path d="M362.904 104.656C305.149 104.656 263.682 141.653 263.682 227.979C263.682 325.814 305.149 351.712 362.904 351.712C420.659 351.712 464.597 323.348 464.597 227.979C464.597 126.032 420.659 104.656 362.904 104.656ZM363.284 319.237C323.281 319.237 302.383 295.805 302.383 228.042C302.383 168.251 324.137 136.72 364.139 136.72C404.142 136.72 425.896 157.431 425.896 228.042C425.896 294.097 403.286 319.237 363.284 319.237V319.237Z" stroke="#3F3D56" stroke-miterlimit="10"/>
<path d="M316.611 20.8985C321.399 20.8985 325.281 17.0229 325.281 12.2422C325.281 7.46148 321.399 3.58594 316.611 3.58594C311.823 3.58594 307.941 7.46148 307.941 12.2422C307.941 17.0229 311.823 20.8985 316.611 20.8985Z" fill="#2F2E41"/>
<path d="M337.757 62.9163C351.187 62.9163 362.074 48.832 362.074 31.4581C362.074 14.0843 351.187 0 337.757 0C324.327 0 313.439 14.0843 313.439 31.4581C313.439 48.832 324.327 62.9163 337.757 62.9163Z" fill="#2F2E41"/>
<path opacity="0.1" d="M337.757 53.4187C325.575 53.4187 315.486 41.8307 313.715 26.7109C313.531 28.2877 313.439 29.8739 313.439 31.4613C313.439 48.8352 324.327 62.9195 337.757 62.9195C351.187 62.9195 362.074 48.8352 362.074 31.4613C362.075 29.8739 361.983 28.2877 361.799 26.7109C360.028 41.8307 349.939 53.4187 337.757 53.4187Z" fill="black"/>
<path d="M387.24 123.582C386.718 125.725 384.466 127.441 381.973 128.64C376.73 131.161 370.263 131.913 363.99 132.165C362.39 132.263 360.784 132.233 359.189 132.077C356.097 131.778 353.196 130.447 350.956 128.298C350.796 128.194 350.665 128.051 350.576 127.883C350.486 127.715 350.441 127.527 350.443 127.336C350.446 127.146 350.498 126.959 350.592 126.793C350.687 126.628 350.822 126.489 350.986 126.39C354.325 122.727 359.898 120.482 365.512 118.865C369.769 117.638 377.192 114.462 381.835 114.891C386.332 115.306 387.9 120.877 387.24 123.582Z" fill="#3F3D56"/>
<path opacity="0.1" d="M387.24 123.582C386.718 125.725 384.466 127.441 381.973 128.64C376.73 131.161 370.263 131.913 363.99 132.165C362.39 132.263 360.784 132.233 359.189 132.077C356.097 131.778 353.196 130.447 350.956 128.298C350.796 128.194 350.665 128.051 350.576 127.883C350.486 127.715 350.441 127.527 350.443 127.336C350.446 127.146 350.498 126.959 350.592 126.793C350.687 126.628 350.822 126.489 350.986 126.39C354.325 122.727 359.898 120.482 365.512 118.865C369.769 117.638 377.192 114.462 381.835 114.891C386.332 115.306 387.9 120.877 387.24 123.582Z" fill="black"/>
<path d="M320.576 107.569C318.976 110.7 318.686 114.338 319.771 117.683C320.874 121.003 322.939 123.921 325.704 126.068C332.488 131.497 341.824 132.244 350.518 132.169C358.137 132.103 365.746 131.582 373.303 130.61C375.835 130.386 378.323 129.809 380.696 128.896C383.533 127.67 386.027 125.422 387.037 122.505C388.047 119.587 387.33 116.015 384.931 114.068C382.823 112.357 379.916 112.122 377.204 111.959L361.689 111.028C363.222 109.479 365.263 108.603 367.13 107.477C369.606 105.983 371.251 103.475 373.052 101.214C375.827 97.903 378.845 94.804 382.083 91.943C382.588 94.8351 384.42 97.21 386.577 99.2055C388.733 101.201 391.219 102.808 393.461 104.708C398.89 109.309 402.799 115.555 408.509 119.805C412.436 118.774 416.108 116.944 419.293 114.429L417.074 110.415C416.889 110.002 416.601 109.644 416.238 109.373C415.61 108.988 414.8 109.186 414.071 109.077C412.121 108.785 411.27 106.538 410.505 104.724C408.405 99.7447 404.384 95.8811 400.951 91.7051C398.416 88.6225 396.168 85.316 394.233 81.8266C393.08 79.7455 392.024 77.5786 390.458 75.7857C388.893 73.9928 386.699 72.5832 384.317 72.5781C382.212 72.5737 380.271 73.6406 378.461 74.7139C372.949 77.9829 367.646 81.5904 362.582 85.5157C359.931 87.57 357.297 89.7405 354.189 91.0002C352.88 91.5305 351.5 91.8929 350.244 92.5382C348.045 93.6684 346.375 95.5806 344.578 97.278C338.169 103.332 329.394 107.255 320.576 107.569Z" fill="#3F3D56"/>
<path d="M353.019 64.4762C352.947 66.3268 352.552 68.1508 351.854 69.8663C351.499 70.722 350.972 71.4956 350.306 72.1389C349.639 72.7822 348.846 73.2814 347.978 73.6054C346.744 73.9354 345.451 73.9773 344.199 73.7279C343.107 73.614 342.055 73.2561 341.12 72.6807C339.665 71.682 338.94 69.9001 338.676 68.1562C338.411 66.4144 338.53 64.6346 338.361 62.8801C338.196 61.463 337.926 60.06 337.553 58.6829C337.439 58.2247 337.322 57.7687 337.208 57.3126C337.096 56.8566 336.986 56.4006 336.885 55.9445C336.792 55.5159 336.705 55.0852 336.631 54.6524C336.57 54.2872 336.515 53.9198 336.474 53.5503C336.437 52.455 336.255 51.3694 335.931 50.3222C335.627 49.643 335.247 49.0005 334.798 48.4072C334.605 48.1328 334.419 47.8583 334.248 47.5733C333.752 46.8326 333.522 45.9465 333.594 45.0587C333.615 44.9215 333.648 44.7865 333.694 44.6555C333.711 44.6048 333.73 44.5542 333.751 44.5056C333.941 44.454 334.116 44.3569 334.26 44.2226C334.404 44.0883 334.513 43.9209 334.578 43.7349C334.65 43.3355 334.616 42.924 334.478 42.5421C334.32 42.0084 334.104 41.4937 333.833 41.0072C333.656 40.6862 333.053 40.1078 333.049 39.7404C333.04 39.0014 334.487 38.406 335.073 38.1147C336.86 37.2208 338.854 36.8171 340.849 36.945C342.129 37.0316 343.516 37.4243 344.222 38.4947C344.857 39.4596 344.772 40.7094 345.043 41.8306C345.071 41.9935 345.14 42.1467 345.244 42.276C345.382 42.4016 345.555 42.4812 345.74 42.504C346.054 42.5663 346.375 42.5791 346.692 42.5421H346.694C346.778 42.5354 346.861 42.5234 346.944 42.5061C347.438 42.4151 347.905 42.2138 348.31 41.9171C348.572 41.8474 348.836 41.7904 349.103 41.7461C349.113 41.745 349.124 41.7429 349.134 41.7398C350.194 45.0777 350.331 48.6563 351.198 52.0555C351.627 53.7466 352.243 55.4167 352.329 57.1564C352.336 57.2324 352.338 57.3105 352.34 57.3886C352.353 57.9481 352.308 58.5118 352.332 59.0692C352.34 59.3202 352.368 59.5701 352.416 59.8166C352.511 60.213 352.629 60.6035 352.769 60.9862L352.776 61.0052C352.816 61.1277 352.854 61.2523 352.886 61.3768C352.909 61.4676 352.93 61.5563 352.947 61.6471L352.949 61.6534C353.106 62.5863 353.129 63.5367 353.019 64.4762Z" fill="#FBBEBE"/>
<path d="M338.179 42.6475C345.069 42.6475 350.655 37.0705 350.655 30.191C350.655 23.3114 345.069 17.7344 338.179 17.7344C331.289 17.7344 325.703 23.3114 325.703 30.191C325.703 37.0705 331.289 42.6475 338.179 42.6475Z" fill="#FBBEBE"/>
<path d="M417.387 98.0602C417.025 94.6617 415.815 91.4081 413.868 88.5974C414.192 90.5187 414.516 92.4392 414.841 94.3591C414.437 94.4758 414.008 94.4722 413.606 94.3488C413.204 94.2255 412.847 93.9876 412.578 93.6645C412.053 93.0095 411.651 92.2649 411.392 91.4666C409.974 87.9535 408.121 84.6318 405.875 81.5795C397.933 80.9187 390.081 77.6314 383.097 73.7994C376.11 69.9695 369.572 65.3775 362.679 61.385C361.484 60.6638 360.239 60.0287 358.953 59.4849C356.796 58.6213 354.375 58.1738 352.33 57.1582C352.193 57.0907 352.055 57.0189 351.92 56.945C351.458 56.6941 351.021 56.4008 350.613 56.0688C350.393 55.8903 350.184 55.6985 349.987 55.4945C348.967 54.3095 348.158 52.9583 347.596 51.5C346.498 49.0762 346.107 46.1521 345.012 43.7283C345.515 43.2586 346.081 42.8601 346.693 42.5439H346.695C346.784 42.4975 346.872 42.4531 346.963 42.4109C347.397 42.2071 347.848 42.0425 348.31 41.919C348.573 41.8493 348.837 41.7923 349.103 41.748C349.114 41.7469 349.125 41.7447 349.135 41.7416C350.371 41.5406 351.636 41.6406 352.825 42.033C354.563 42.6199 356.029 43.7917 357.49 44.9001C359.864 46.5699 362.14 48.373 364.309 50.3008C365.514 51.4535 366.614 52.7203 367.91 53.7675C368.987 54.5975 370.123 55.349 371.308 56.016C378.322 60.1879 385.337 64.3591 392.352 68.5296C394.727 69.942 397.104 71.3545 399.426 72.8493C402.953 75.121 406.353 77.5828 409.751 80.0424C411.754 81.4908 413.755 82.9398 415.756 84.3896C416.413 84.8078 416.989 85.3397 417.459 85.9604C417.873 86.6651 418.131 87.4507 418.214 88.2638C418.716 91.5487 418.432 94.9056 417.387 98.0602Z" fill="#FBBEBE"/>
<path d="M356.114 73.8478C355.272 77.6165 351.457 79.8946 349.463 83.2051C346.985 87.3136 347.996 92.0893 348.926 96.7954C347.226 98.2585 345.525 99.7217 343.824 101.185C342.885 101.989 341.946 102.798 340.935 103.509C339.462 104.495 337.921 105.379 336.326 106.153C334.82 106.925 333.314 107.699 331.809 108.473C330.409 109.259 328.926 109.886 327.387 110.344C324.421 111.104 321.27 110.572 318.335 109.691C317.989 109.601 317.656 109.465 317.345 109.288C317.162 109.179 317.003 109.035 316.876 108.864C316.587 108.346 316.481 107.745 316.578 107.16C316.876 102.228 318.083 97.3992 319.287 92.6066C319.93 89.7314 320.794 86.91 321.873 84.1678C322.93 81.8181 324.146 79.5425 325.512 77.3568C327.019 74.6067 328.805 72.0181 330.84 69.6316C331.832 68.7131 332.666 67.6391 333.31 66.452C334.061 64.7419 333.771 62.7805 333.923 60.9183C334.04 59.5192 334.412 58.1533 335.021 56.8879V56.8858C335.347 56.2042 335.739 55.5564 336.192 54.9518C336.397 55.429 336.603 55.9054 336.808 56.3812C336.943 56.6936 337.077 57.0054 337.209 57.3165C337.383 57.7177 337.555 58.1174 337.725 58.5157C338.218 59.66 338.71 60.8037 339.201 61.9466C339.732 63.3861 340.489 64.7323 341.443 65.9348C341.879 66.5506 342.467 67.0429 343.151 67.3637C343.835 67.6845 344.59 67.8229 345.343 67.7652C346.096 67.7076 346.821 67.4559 347.448 67.0348C348.074 66.6137 348.581 66.0376 348.918 65.3626C349.629 64.1028 350.143 62.7423 350.444 61.328C350.862 59.6058 350.92 57.8162 350.614 56.0709C350.104 52.7097 348.672 49.2768 347.632 46.1542C347.209 45.113 346.963 44.0082 346.907 42.8859C346.909 42.7598 346.922 42.634 346.945 42.5101C346.951 42.4784 346.958 42.4446 346.964 42.413C347.397 42.2092 347.848 42.0445 348.311 41.921C348.573 41.8513 348.837 41.7943 349.104 41.75C350.019 46.6989 350.937 51.6477 351.855 56.5966C351.876 56.7127 351.899 56.8288 351.92 56.947C352.052 57.6564 352.185 58.3658 352.333 59.0731C352.466 59.7149 352.61 60.3546 352.771 60.9901L352.777 61.0091C352.832 61.2245 352.889 61.4377 352.948 61.651L352.95 61.6573C353.113 62.24 353.295 62.8185 353.5 63.3886C354.743 66.8236 356.911 70.2819 356.114 73.8478Z" fill="#02BE6A"/>
<path d="M406.745 126.806C406.705 127.532 406.846 128.257 407.155 128.915C407.936 130.34 409.809 130.664 411.43 130.797C420.9 131.575 430.428 131.285 439.833 129.933C440.343 129.898 440.838 129.745 441.279 129.485C442.616 128.549 441.792 126.268 440.332 125.538C438.871 124.807 437.139 124.983 435.537 124.667C433.945 124.267 432.429 123.611 431.049 122.724C427.8 120.86 424.598 118.917 421.444 116.894C419.566 115.69 417.35 114.405 415.235 115.119C409.506 117.054 406.707 120.636 406.745 126.806Z" fill="#3F3D56"/>
<path d="M336.934 55.6823V55.6844C336.92 55.773 336.905 55.8596 336.886 55.9462C336.862 56.0898 336.835 56.2354 336.807 56.379C336.545 57.7196 336.224 59.0539 335.854 60.3798C334.839 64.0429 333.479 67.6469 332.13 71.1981C328.51 80.72 324.889 90.2425 321.268 99.7658C320.354 102.164 319.443 104.565 318.404 106.915C318.058 107.698 317.7 108.488 317.345 109.286C316.072 112.142 314.85 115.092 314.444 118.132C314.065 120.133 314.022 122.183 314.315 124.198C314.721 126.191 315.933 128.137 317.829 128.874C318.755 129.235 320.081 129.719 319.827 130.679C319.69 131.207 319.09 131.465 318.55 131.553C317.838 131.667 317.11 131.622 316.417 131.423C315.724 131.224 315.084 130.875 314.541 130.401C313.528 129.503 312.75 128.108 311.403 127.958C310.471 127.857 309.612 128.414 308.758 128.804C305.273 130.394 301.213 129.282 297.553 128.152C297.84 126.672 299.329 125.697 300.807 125.401C302.285 125.103 303.814 125.315 305.322 125.274C305.804 125.3 306.283 125.177 306.694 124.922C307.062 124.585 307.32 124.145 307.434 123.659C308.405 120.786 309.128 117.835 309.593 114.838C310.079 111.707 310.282 108.528 310.976 105.435C311.515 103.021 312.348 100.684 313.063 98.3154C314.445 93.4381 315.58 88.4942 316.463 83.5026C316.91 81.4289 317.23 79.3299 317.421 77.2173C317.542 75.465 317.485 73.7042 317.654 71.9581C317.938 69.6865 318.412 67.4428 319.073 65.2506C319.72 62.8585 320.366 60.4678 321.012 58.0785C321.97 54.5421 322.997 50.8685 325.425 48.1196C326.268 47.1519 327.301 46.3673 328.46 45.8146C329.619 45.2618 330.88 44.9527 332.164 44.9063C332.645 44.9057 333.125 44.9573 333.595 45.0604C333.674 45.0794 333.752 45.0984 333.83 45.1195C334.342 45.2532 334.834 45.4564 335.291 45.7233C336.04 45.2483 336.42 45.4151 336.917 46.1477C337.353 46.923 337.558 47.8062 337.509 48.6939C337.551 51.0367 337.359 53.3778 336.934 55.6823Z" fill="#FBBEBE"/>
<path d="M337.757 58.481L337.725 58.5126L337.554 58.6837L335.854 60.379L335.021 56.8848L332.164 44.9054C332.645 44.9048 333.125 44.9565 333.596 45.0595C333.616 44.9223 333.649 44.7872 333.695 44.6562L333.83 45.1186L334.799 48.408L336.632 54.6532L336.934 55.6814V55.6835L337.757 58.481Z" fill="#02BE6A"/>
<path d="M348.543 20.2638C348.542 21.373 348.322 22.4711 347.895 23.4953C347.468 24.5195 346.844 25.4496 346.057 26.2326C345.772 26.5176 345.466 26.7814 345.143 27.0219C343.683 28.1202 341.906 28.7147 340.079 28.7155H329.934C327.692 28.7121 325.544 27.8205 323.96 26.2367C322.376 24.6528 321.486 22.5061 321.486 20.2679C321.486 18.0297 322.376 15.883 323.96 14.2992C325.544 12.7153 327.692 11.8238 329.934 11.8203H340.079C342.32 11.8261 344.469 12.7173 346.055 14.2993C347.641 15.8813 348.535 18.0255 348.543 20.2638Z" fill="#2F2E41"/>
<path d="M358.056 20.8985C362.845 20.8985 366.726 17.0229 366.726 12.2422C366.726 7.46148 362.845 3.58594 358.056 3.58594C353.268 3.58594 349.387 7.46148 349.387 12.2422C349.387 17.0229 353.268 20.8985 358.056 20.8985Z" fill="#2F2E41"/>
<path opacity="0.1" d="M357.845 3.58594C357.738 3.58594 357.633 3.59015 357.527 3.59394C359.77 3.67535 361.894 4.62214 363.452 6.23511C365.009 7.84808 365.88 10.0015 365.88 12.2422C365.88 14.483 365.009 16.6363 363.452 18.2493C361.894 19.8623 359.77 20.8091 357.527 20.8905C357.633 20.8943 357.738 20.8985 357.845 20.8985C360.144 20.8985 362.349 19.9865 363.975 18.3631C365.601 16.7397 366.514 14.538 366.514 12.2422C366.514 9.94643 365.601 7.74467 363.975 6.1213C362.349 4.49794 360.144 3.58594 357.845 3.58594Z" fill="black"/>
<path opacity="0.1" d="M316.611 3.58594C316.718 3.58594 316.823 3.59015 316.928 3.59394C314.686 3.67535 312.562 4.62214 311.004 6.23511C309.446 7.84808 308.576 10.0015 308.576 12.2422C308.576 14.483 309.446 16.6363 311.004 18.2493C312.562 19.8623 314.686 20.8091 316.928 20.8905C316.823 20.8943 316.718 20.8985 316.611 20.8985C314.313 20.8965 312.11 19.9836 310.486 18.3604C308.862 16.7373 307.949 14.5367 307.949 12.2422C307.949 9.94775 308.862 7.74714 310.486 6.124C312.11 4.50085 314.313 3.58796 316.611 3.58594Z" fill="black"/>
<path opacity="0.1" d="M345.144 27.0234C343.685 28.1217 341.907 28.7162 340.08 28.7171H329.935C328.108 28.7162 326.33 28.1217 324.871 27.0234H345.144Z" fill="black"/>
<path d="M410.654 89.7461C410.654 89.7461 412.84 96.0341 414.84 94.3599L413.246 86.1406L410.654 89.7461Z" fill="#FBBEBE"/>
<path d="M676.621 281.503C678.656 282.242 680.836 282.498 682.988 282.253C685.14 282.007 687.206 281.266 689.022 280.087C690.838 278.908 692.355 277.325 693.453 275.461C694.552 273.597 695.202 271.503 695.352 269.346C695.502 267.188 695.148 265.026 694.318 263.028C693.488 261.03 692.205 259.252 690.569 257.834C688.934 256.417 686.991 255.397 684.893 254.857C682.796 254.317 680.602 254.27 678.483 254.721L678.833 261.908L675.427 255.749C672.085 257.317 669.502 260.146 668.248 263.614C667.802 264.829 667.531 266.101 667.443 267.392C667.228 270.42 668.008 273.436 669.664 275.982C671.32 278.529 673.762 280.467 676.621 281.503Z" fill="#02BE6A"/>
<path d="M693.473 364.869C692.27 358.757 697.48 353.337 702.626 349.815C707.772 346.293 713.785 342.832 715.541 336.854C718.064 328.263 710.548 320.395 704.697 313.611C700.357 308.576 696.63 303.045 693.593 297.133C692.376 294.763 691.258 292.286 690.937 289.641C690.476 285.833 691.701 282.044 692.936 278.411C697.048 266.311 701.445 254.312 706.126 242.414" stroke="#3F3D56" stroke-miterlimit="10"/>
<path d="M677.197 279.651C679.232 280.39 681.412 280.647 683.564 280.401C685.716 280.155 687.782 279.414 689.598 278.235C691.414 277.057 692.931 275.473 694.029 273.609C695.128 271.745 695.778 269.652 695.928 267.494C696.078 265.337 695.724 263.174 694.894 261.176C694.064 259.179 692.781 257.401 691.145 255.983C689.51 254.565 687.567 253.546 685.469 253.005C683.372 252.465 681.178 252.418 679.059 252.869L679.409 260.057L676.003 253.897C672.661 255.465 670.078 258.294 668.824 261.763C668.378 262.978 668.107 264.249 668.019 265.54C667.804 268.569 668.584 271.585 670.24 274.131C671.896 276.677 674.338 278.615 677.197 279.651V279.651Z" stroke="#3F3D56" stroke-miterlimit="10"/>
<path d="M691.763 239.933C692.561 237.732 693.902 235.767 695.661 234.22C697.421 232.672 699.542 231.592 701.829 231.078L702.981 237.911L705.116 230.734C708.08 230.778 710.954 231.762 713.322 233.542C715.69 235.323 717.43 237.809 718.29 240.642C719.151 243.475 719.088 246.507 718.11 249.301C717.132 252.096 715.29 254.508 712.85 256.189C710.41 257.87 707.498 258.733 704.534 258.654C701.571 258.574 698.709 257.557 696.362 255.748C694.016 253.939 692.305 251.432 691.479 248.59C690.652 245.747 690.751 242.716 691.762 239.933H691.763Z" fill="#02BE6A"/>
<path d="M692.53 237.464C693.329 235.263 694.67 233.299 696.429 231.751C698.188 230.204 700.309 229.123 702.597 228.609L703.748 235.442L705.883 228.266C708.848 228.31 711.721 229.293 714.089 231.074C716.457 232.855 718.197 235.341 719.058 238.173C719.919 241.006 719.856 244.038 718.878 246.833C717.9 249.627 716.058 252.039 713.618 253.72C711.177 255.401 708.265 256.264 705.302 256.185C702.338 256.106 699.476 255.088 697.13 253.279C694.783 251.47 693.073 248.963 692.246 246.121C691.419 243.278 691.519 240.247 692.53 237.464H692.53Z" stroke="#3F3D56" stroke-miterlimit="10"/>
<path d="M702.242 313.749C705.47 314.919 709.016 314.861 712.205 313.587C715.393 312.313 718.001 309.913 719.531 306.843C721.06 303.773 721.405 300.248 720.499 296.941C719.594 293.633 717.501 290.774 714.619 288.908L712.979 294.423L711.815 287.51C711.804 287.504 711.792 287.5 711.78 287.496C710.053 286.87 708.22 286.589 706.384 286.67C704.549 286.751 702.747 287.193 701.083 287.969C699.418 288.746 697.923 289.842 696.683 291.196C695.443 292.549 694.482 294.134 693.856 295.858C693.229 297.583 692.949 299.413 693.032 301.246C693.114 303.079 693.557 304.877 694.336 306.538C695.115 308.2 696.214 309.692 697.57 310.929C698.927 312.166 700.514 313.125 702.241 313.749H702.242Z" fill="#02BE6A"/>
<path d="M702.908 311.249C706.136 312.419 709.682 312.361 712.871 311.087C716.059 309.813 718.667 307.413 720.197 304.343C721.726 301.273 722.071 297.748 721.165 294.441C720.26 291.133 718.167 288.274 715.285 286.408L713.645 291.923L712.481 285.01C712.47 285.004 712.458 285 712.446 284.996C710.719 284.37 708.886 284.089 707.05 284.17C705.215 284.251 703.413 284.693 701.749 285.469C700.084 286.246 698.589 287.342 697.349 288.696C696.109 290.049 695.148 291.634 694.522 293.358C693.895 295.083 693.615 296.913 693.698 298.746C693.78 300.579 694.223 302.377 695.002 304.038C695.781 305.7 696.88 307.192 698.236 308.429C699.593 309.666 701.18 310.625 702.907 311.249H702.908Z" stroke="#3F3D56" stroke-miterlimit="10"/>
<path d="M687.682 336.935C688.237 340.089 689.861 342.956 692.282 345.056C694.703 347.156 697.774 348.361 700.979 348.469C704.184 348.576 707.329 347.581 709.886 345.648C712.443 343.716 714.257 340.964 715.023 337.855C715.789 334.745 715.462 331.468 714.095 328.571C712.728 325.674 710.405 323.335 707.516 321.945C704.627 320.556 701.347 320.2 698.226 320.939C695.106 321.677 692.334 323.464 690.377 326L696.608 335.365L688.094 330.394C687.434 332.51 687.292 334.754 687.682 336.935Z" fill="#02BE6A"/>
<path d="M688.258 335.084C688.813 338.237 690.437 341.105 692.858 343.205C695.279 345.304 698.35 346.509 701.555 346.617C704.76 346.725 707.905 345.729 710.462 343.796C713.019 341.864 714.833 339.112 715.599 336.003C716.365 332.894 716.038 329.616 714.671 326.719C713.304 323.823 710.981 321.484 708.092 320.094C705.203 318.704 701.923 318.349 698.802 319.087C695.682 319.825 692.91 321.612 690.953 324.149L697.184 333.513L688.67 328.543C688.01 330.659 687.868 332.902 688.258 335.084V335.084Z" stroke="#3F3D56" stroke-miterlimit="10"/>
<path d="M6.05259 315.524C7.39008 316.01 8.82223 316.179 10.2362 316.017C11.6501 315.856 13.0071 315.369 14.2003 314.594C15.3935 313.82 16.3903 312.779 17.112 311.555C17.8338 310.33 18.2608 308.955 18.3593 307.537C18.4579 306.12 18.2254 304.699 17.6801 303.386C17.1348 302.074 16.2917 300.905 15.2171 299.974C14.1426 299.042 12.866 298.372 11.4879 298.017C10.1099 297.662 8.66818 297.632 7.27632 297.928L7.50633 302.651L5.26862 298.603C3.07245 299.634 1.37581 301.493 0.551558 303.771C0.25883 304.569 0.0808733 305.405 0.0229965 306.253C-0.118248 308.243 0.393962 310.224 1.48201 311.897C2.57005 313.57 4.17463 314.844 6.05259 315.524Z" fill="#02BE6A"/>
<path d="M17.1256 370.291C16.3357 366.275 19.7586 362.715 23.1395 360.4C26.5205 358.086 30.471 355.812 31.6246 351.885C33.2825 346.24 28.3441 341.071 24.5004 336.613C21.6487 333.305 19.1998 329.671 17.2048 325.788C16.3375 324.262 15.7468 322.596 15.4599 320.865C15.1568 318.363 15.9618 315.873 16.7729 313.487C19.4748 305.537 22.3636 297.653 25.4393 289.836" stroke="#3F3D56" stroke-miterlimit="10"/>
<path d="M6.43151 314.306C7.769 314.791 9.20115 314.96 10.6151 314.798C12.029 314.637 13.386 314.15 14.5792 313.375C15.7724 312.601 16.7692 311.56 17.4909 310.336C18.2127 309.111 18.6396 307.736 18.7382 306.318C18.8368 304.901 18.6043 303.48 18.059 302.167C17.5137 300.855 16.6706 299.687 15.596 298.755C14.5215 297.823 13.2449 297.154 11.8668 296.799C10.4888 296.444 9.04709 296.413 7.65523 296.709L7.88524 301.432L5.64753 297.385C3.45136 298.415 1.75472 300.274 0.930465 302.552C0.63774 303.351 0.459786 304.186 0.401906 305.034C0.260652 307.024 0.772859 309.006 1.86091 310.679C2.94895 312.352 4.55353 313.625 6.43151 314.306V314.306Z" stroke="#3F3D56" stroke-miterlimit="10"/>
<path d="M16.0022 288.208C16.5271 286.762 17.408 285.471 18.5639 284.454C19.7197 283.437 21.1133 282.727 22.6161 282.39L23.3727 286.879L24.7755 282.164C26.7231 282.193 28.6111 282.839 30.167 284.009C31.7229 285.179 32.8661 286.813 33.4315 288.674C33.997 290.535 33.9555 292.527 33.313 294.363C32.6705 296.199 31.4603 297.783 29.857 298.888C28.2538 299.992 26.3405 300.559 24.3934 300.507C22.4462 300.455 20.5661 299.787 19.0243 298.598C17.4825 297.41 16.3589 295.763 15.8157 293.895C15.2725 292.028 15.3378 290.036 16.0022 288.208Z" fill="#02BE6A"/>
<path d="M16.5061 286.583C17.031 285.137 17.9119 283.846 19.0678 282.829C20.2236 281.812 21.6172 281.102 23.1201 280.765L23.8766 285.254L25.2794 280.539C27.227 280.568 29.115 281.214 30.6709 282.384C32.2268 283.554 33.37 285.188 33.9354 287.049C34.5009 288.91 34.4594 290.902 33.8169 292.738C33.1744 294.574 31.9642 296.158 30.3609 297.263C28.7577 298.367 26.8444 298.934 24.8973 298.882C22.9501 298.83 21.07 298.162 19.5282 296.973C17.9864 295.785 16.8628 294.138 16.3196 292.27C15.7764 290.403 15.8417 288.411 16.5061 286.583V286.583Z" stroke="#3F3D56" stroke-miterlimit="10"/>
<path d="M22.886 336.707C25.0072 337.476 27.3373 337.438 29.4322 336.601C31.5271 335.764 33.2404 334.187 34.2454 332.17C35.2505 330.153 35.477 327.837 34.8819 325.664C34.2868 323.491 32.9116 321.612 31.0184 320.386L29.9406 324.01L29.1763 319.467C29.1687 319.464 29.1609 319.461 29.1529 319.459C28.0183 319.047 26.8136 318.862 25.6075 318.915C24.4014 318.968 23.2176 319.258 22.1238 319.768C21.03 320.279 20.0477 320.999 19.2328 321.888C18.418 322.778 17.7867 323.819 17.375 324.952C16.9633 326.085 16.7793 327.288 16.8335 328.492C16.8877 329.697 17.179 330.878 17.6908 331.97C18.2026 333.062 18.9248 334.042 19.8163 334.855C20.7077 335.668 21.7508 336.297 22.886 336.707Z" fill="#02BE6A"/>
<path d="M23.3247 335.064C25.4458 335.833 27.7759 335.795 29.8708 334.958C31.9657 334.121 33.679 332.544 34.684 330.527C35.6891 328.51 35.9156 326.194 35.3205 324.021C34.7254 321.848 33.3502 319.969 31.4571 318.743L30.3792 322.367L29.6149 317.824C29.6074 317.821 29.5995 317.818 29.5915 317.816C28.4572 317.405 27.2529 317.221 26.0475 317.275C24.842 317.329 23.659 317.619 22.5659 318.129C20.3584 319.16 18.6514 321.024 17.8203 323.311C16.9893 325.599 17.1023 328.122 18.1346 330.326C19.1669 332.53 21.0338 334.235 23.3247 335.064V335.064Z" stroke="#3F3D56" stroke-miterlimit="10"/>
<path d="M13.3208 351.945C13.6856 354.017 14.7527 355.901 16.3434 357.28C17.9341 358.66 19.9515 359.451 22.0573 359.522C24.1632 359.593 26.2294 358.939 27.9094 357.669C29.5894 356.399 30.7811 354.592 31.2846 352.549C31.7881 350.506 31.5728 348.352 30.6747 346.449C29.7767 344.546 28.2506 343.009 26.3523 342.096C24.4541 341.183 22.2991 340.95 20.2488 341.435C18.1986 341.92 16.3777 343.094 15.0916 344.76L19.1857 350.913L13.5916 347.647C13.1579 349.037 13.065 350.511 13.3208 351.945Z" fill="#02BE6A"/>
<path d="M13.6978 350.726C14.0625 352.798 15.1297 354.682 16.7204 356.062C18.311 357.441 20.3285 358.233 22.4343 358.304C24.5401 358.374 26.6063 357.72 28.2864 356.45C29.9664 355.181 31.1581 353.373 31.6616 351.33C32.165 349.287 31.9497 347.134 31.0517 345.23C30.1537 343.327 28.6276 341.79 26.7293 340.877C24.831 339.964 22.6761 339.731 20.6258 340.216C18.5755 340.701 16.7547 341.875 15.4685 343.542L19.5626 349.694L13.9686 346.429C13.5348 347.819 13.442 349.293 13.6978 350.726V350.726Z" stroke="#3F3D56" stroke-miterlimit="10"/>
<path d="M323.2 228.874C329.509 228.874 334.624 222.265 334.624 214.113C334.624 205.96 329.509 199.352 323.2 199.352C316.89 199.352 311.775 205.96 311.775 214.113C311.775 222.265 316.89 228.874 323.2 228.874Z" fill="#2F2E41"/>
<path d="M385.36 229.21C391.669 229.21 396.784 222.601 396.784 214.449C396.784 206.296 391.669 199.688 385.36 199.688C379.05 199.688 373.936 206.296 373.936 214.449C373.936 222.601 379.05 229.21 385.36 229.21Z" fill="#2F2E41"/>
<path d="M376.623 258.062C376.623 264.731 367.296 270.139 355.791 270.139C344.286 270.139 334.959 264.731 334.959 258.062C334.959 252.285 341.955 247.454 351.302 246.273C352.79 246.077 354.29 245.981 355.791 245.985C358.307 245.976 360.815 246.246 363.271 246.79C371.079 248.528 376.623 252.922 376.623 258.062Z" fill="#2F2E41"/>
<path d="M325.887 225.523C332.196 225.523 337.311 218.914 337.311 210.761C337.311 202.609 332.196 196 325.887 196C319.578 196 314.463 202.609 314.463 210.761C314.463 218.914 319.578 225.523 325.887 225.523Z" stroke="#3F3D56" stroke-miterlimit="10"/>
<path d="M388.049 225.859C394.358 225.859 399.473 219.25 399.473 211.097C399.473 202.945 394.358 196.336 388.049 196.336C381.74 196.336 376.625 202.945 376.625 211.097C376.625 219.25 381.74 225.859 388.049 225.859Z" stroke="#3F3D56" stroke-miterlimit="10"/>
<path d="M358.481 266.788C369.986 266.788 379.313 261.38 379.313 254.71C379.313 248.04 369.986 242.633 358.481 242.633C346.975 242.633 337.648 248.04 337.648 254.71C337.648 261.38 346.975 266.788 358.481 266.788Z" stroke="#3F3D56" stroke-miterlimit="10"/>
<path d="M363.52 247.796C363.525 248.639 363.208 249.453 362.632 250.072C362.361 250.368 362.031 250.605 361.663 250.767C361.295 250.93 360.898 251.015 360.496 251.016H353.775C352.947 250.988 352.164 250.633 351.598 250.029C351.031 249.426 350.727 248.623 350.751 247.796C350.748 247.142 350.94 246.501 351.302 245.956C352.79 245.747 354.29 245.645 355.791 245.649C358.31 245.64 360.82 245.929 363.271 246.507C363.437 246.917 363.521 247.354 363.52 247.796Z" fill="white"/>
<path d="M325.887 210.092C327.743 210.092 329.247 208.59 329.247 206.738C329.247 204.885 327.743 203.383 325.887 203.383C324.032 203.383 322.527 204.885 322.527 206.738C322.527 208.59 324.032 210.092 325.887 210.092Z" fill="white"/>
<path d="M388.383 210.092C390.239 210.092 391.744 208.59 391.744 206.738C391.744 204.885 390.239 203.383 388.383 203.383C386.528 203.383 385.023 204.885 385.023 206.738C385.023 208.59 386.528 210.092 388.383 210.092Z" fill="white"/>
<path opacity="0.3" d="M391.745 241.624C393.6 241.624 395.105 240.122 395.105 238.269C395.105 236.416 393.6 234.914 391.745 234.914C389.889 234.914 388.385 236.416 388.385 238.269C388.385 240.122 389.889 241.624 391.745 241.624Z" fill="#02BE6A"/>
<path opacity="0.3" d="M309.758 241.624C311.614 241.624 313.118 240.122 313.118 238.269C313.118 236.416 311.614 234.914 309.758 234.914C307.903 234.914 306.398 236.416 306.398 238.269C306.398 240.122 307.903 241.624 309.758 241.624Z" fill="#02BE6A"/>
</g>
<path d="M326.871 458.545C326.871 462.307 326.166 465.528 324.757 468.21C323.359 470.881 321.45 472.926 319.03 474.347C316.621 475.767 313.888 476.477 310.831 476.477C307.774 476.477 305.036 475.767 302.615 474.347C300.206 472.915 298.297 470.864 296.888 468.193C295.49 465.511 294.791 462.295 294.791 458.545C294.791 454.784 295.49 451.568 296.888 448.898C298.297 446.216 300.206 444.165 302.615 442.744C305.036 441.324 307.774 440.614 310.831 440.614C313.888 440.614 316.621 441.324 319.03 442.744C321.45 444.165 323.359 446.216 324.757 448.898C326.166 451.568 326.871 454.784 326.871 458.545ZM320.513 458.545C320.513 455.898 320.098 453.665 319.268 451.847C318.45 450.017 317.314 448.636 315.859 447.705C314.405 446.761 312.729 446.29 310.831 446.29C308.933 446.29 307.257 446.761 305.803 447.705C304.348 448.636 303.206 450.017 302.376 451.847C301.558 453.665 301.149 455.898 301.149 458.545C301.149 461.193 301.558 463.432 302.376 465.261C303.206 467.08 304.348 468.46 305.803 469.403C307.257 470.335 308.933 470.801 310.831 470.801C312.729 470.801 314.405 470.335 315.859 469.403C317.314 468.46 318.45 467.08 319.268 465.261C320.098 463.432 320.513 461.193 320.513 458.545ZM343.997 476.511C341.44 476.511 339.224 475.949 337.349 474.824C335.474 473.699 334.02 472.125 332.986 470.102C331.963 468.08 331.452 465.716 331.452 463.011C331.452 460.307 331.963 457.937 332.986 455.903C334.02 453.869 335.474 452.29 337.349 451.165C339.224 450.04 341.44 449.477 343.997 449.477C346.554 449.477 348.77 450.04 350.645 451.165C352.52 452.29 353.969 453.869 354.991 455.903C356.026 457.937 356.543 460.307 356.543 463.011C356.543 465.716 356.026 468.08 354.991 470.102C353.969 472.125 352.52 473.699 350.645 474.824C348.77 475.949 346.554 476.511 343.997 476.511ZM344.031 471.568C345.418 471.568 346.577 471.187 347.509 470.426C348.44 469.653 349.134 468.619 349.588 467.324C350.054 466.028 350.287 464.585 350.287 462.994C350.287 461.392 350.054 459.943 349.588 458.648C349.134 457.341 348.44 456.301 347.509 455.528C346.577 454.756 345.418 454.369 344.031 454.369C342.611 454.369 341.429 454.756 340.486 455.528C339.554 456.301 338.855 457.341 338.389 458.648C337.935 459.943 337.707 461.392 337.707 462.994C337.707 464.585 337.935 466.028 338.389 467.324C338.855 468.619 339.554 469.653 340.486 470.426C341.429 471.187 342.611 471.568 344.031 471.568ZM361.78 485.818V449.818H367.848V454.148H368.206C368.524 453.511 368.973 452.835 369.553 452.119C370.132 451.392 370.916 450.773 371.905 450.261C372.893 449.739 374.155 449.477 375.689 449.477C377.712 449.477 379.536 449.994 381.161 451.028C382.797 452.051 384.092 453.568 385.047 455.58C386.013 457.58 386.496 460.034 386.496 462.943C386.496 465.818 386.024 468.261 385.081 470.273C384.138 472.284 382.854 473.818 381.229 474.875C379.604 475.932 377.763 476.46 375.706 476.46C374.206 476.46 372.962 476.21 371.973 475.71C370.984 475.21 370.189 474.608 369.587 473.903C368.996 473.187 368.536 472.511 368.206 471.875H367.95V485.818H361.78ZM367.831 462.909C367.831 464.602 368.07 466.085 368.547 467.358C369.036 468.631 369.734 469.625 370.643 470.341C371.564 471.045 372.678 471.398 373.984 471.398C375.348 471.398 376.49 471.034 377.411 470.307C378.331 469.568 379.024 468.562 379.49 467.29C379.967 466.006 380.206 464.545 380.206 462.909C380.206 461.284 379.973 459.841 379.507 458.58C379.041 457.318 378.348 456.33 377.428 455.614C376.507 454.898 375.359 454.54 373.984 454.54C372.666 454.54 371.547 454.886 370.626 455.58C369.706 456.273 369.007 457.244 368.53 458.494C368.064 459.744 367.831 461.216 367.831 462.909ZM412.473 456.739L406.848 457.352C406.689 456.784 406.411 456.25 406.013 455.75C405.626 455.25 405.104 454.847 404.445 454.54C403.786 454.233 402.979 454.08 402.024 454.08C400.74 454.08 399.661 454.358 398.786 454.915C397.922 455.472 397.496 456.193 397.507 457.08C397.496 457.841 397.774 458.46 398.342 458.938C398.922 459.415 399.876 459.807 401.206 460.114L405.672 461.068C408.149 461.602 409.99 462.449 411.195 463.608C412.411 464.767 413.024 466.284 413.036 468.159C413.024 469.807 412.541 471.261 411.587 472.523C410.643 473.773 409.331 474.75 407.649 475.455C405.967 476.159 404.036 476.511 401.854 476.511C398.649 476.511 396.07 475.841 394.115 474.5C392.161 473.148 390.996 471.267 390.621 468.858L396.638 468.278C396.911 469.46 397.49 470.352 398.376 470.955C399.263 471.557 400.416 471.858 401.837 471.858C403.303 471.858 404.479 471.557 405.365 470.955C406.263 470.352 406.712 469.608 406.712 468.722C406.712 467.972 406.422 467.352 405.842 466.864C405.274 466.375 404.388 466 403.183 465.739L398.717 464.801C396.206 464.278 394.348 463.398 393.143 462.159C391.939 460.909 391.342 459.33 391.354 457.42C391.342 455.807 391.78 454.409 392.666 453.227C393.564 452.034 394.808 451.114 396.399 450.466C398.001 449.807 399.848 449.477 401.939 449.477C405.007 449.477 407.422 450.131 409.183 451.438C410.956 452.744 412.053 454.511 412.473 456.739ZM425.675 441.091L425.112 465.739H419.624L419.078 441.091H425.675ZM422.368 476.375C421.334 476.375 420.447 476.011 419.709 475.284C418.982 474.557 418.618 473.67 418.618 472.625C418.618 471.602 418.982 470.727 419.709 470C420.447 469.273 421.334 468.909 422.368 468.909C423.379 468.909 424.254 469.273 424.993 470C425.743 470.727 426.118 471.602 426.118 472.625C426.118 473.318 425.942 473.949 425.589 474.517C425.249 475.085 424.794 475.54 424.226 475.881C423.669 476.21 423.05 476.375 422.368 476.375Z" fill="black"/>
<path d="M81.6825 549L76.9098 531.545H79.0575L82.7053 545.761H82.8757L86.5916 531.545H88.978L92.6939 545.761H92.8643L96.5121 531.545H98.6598L93.8871 549H91.7053L87.853 535.091H87.7166L83.8643 549H81.6825ZM105.29 549.273C104.029 549.273 102.941 548.994 102.026 548.438C101.117 547.875 100.415 547.091 99.9212 546.085C99.4325 545.074 99.1882 543.898 99.1882 542.557C99.1882 541.216 99.4325 540.034 99.9212 539.011C100.415 537.983 101.103 537.182 101.984 536.608C102.87 536.028 103.904 535.739 105.086 535.739C105.768 535.739 106.441 535.852 107.106 536.08C107.771 536.307 108.376 536.676 108.921 537.188C109.467 537.693 109.901 538.364 110.225 539.199C110.549 540.034 110.711 541.062 110.711 542.284V543.136H100.62V541.398H108.665C108.665 540.659 108.518 540 108.222 539.42C107.933 538.841 107.518 538.384 106.978 538.048C106.444 537.713 105.813 537.545 105.086 537.545C104.285 537.545 103.592 537.744 103.006 538.142C102.427 538.534 101.981 539.045 101.668 539.676C101.356 540.307 101.2 540.983 101.2 541.705V542.864C101.2 543.852 101.37 544.69 101.711 545.378C102.058 546.06 102.538 546.58 103.151 546.938C103.765 547.29 104.478 547.466 105.29 547.466C105.819 547.466 106.296 547.392 106.722 547.244C107.154 547.091 107.526 546.864 107.839 546.562C108.151 546.256 108.393 545.875 108.563 545.42L110.506 545.966C110.302 546.625 109.958 547.205 109.475 547.705C108.992 548.199 108.396 548.585 107.685 548.864C106.975 549.136 106.177 549.273 105.29 549.273ZM125.839 549.273C124.612 549.273 123.555 548.983 122.668 548.403C121.782 547.824 121.1 547.026 120.623 546.009C120.146 544.991 119.907 543.83 119.907 542.523C119.907 541.193 120.151 540.02 120.64 539.003C121.134 537.98 121.822 537.182 122.702 536.608C123.589 536.028 124.623 535.739 125.805 535.739C126.725 535.739 127.555 535.909 128.293 536.25C129.032 536.591 129.637 537.068 130.109 537.682C130.58 538.295 130.873 539.011 130.987 539.83H128.975C128.822 539.233 128.481 538.705 127.952 538.244C127.43 537.778 126.725 537.545 125.839 537.545C125.055 537.545 124.367 537.75 123.776 538.159C123.191 538.562 122.734 539.134 122.404 539.872C122.08 540.605 121.918 541.466 121.918 542.455C121.918 543.466 122.077 544.347 122.396 545.097C122.719 545.847 123.174 546.429 123.759 546.844C124.35 547.259 125.043 547.466 125.839 547.466C126.362 547.466 126.836 547.375 127.262 547.193C127.688 547.011 128.049 546.75 128.344 546.409C128.64 546.068 128.85 545.659 128.975 545.182H130.987C130.873 545.955 130.592 546.651 130.143 547.27C129.7 547.884 129.112 548.372 128.379 548.736C127.651 549.094 126.805 549.273 125.839 549.273ZM137.779 549.307C136.95 549.307 136.197 549.151 135.521 548.838C134.844 548.52 134.308 548.062 133.91 547.466C133.512 546.864 133.313 546.136 133.313 545.284C133.313 544.534 133.461 543.926 133.756 543.46C134.052 542.989 134.447 542.619 134.941 542.352C135.435 542.085 135.981 541.886 136.577 541.756C137.18 541.619 137.785 541.511 138.393 541.432C139.188 541.33 139.833 541.253 140.327 541.202C140.827 541.145 141.191 541.051 141.418 540.92C141.651 540.79 141.768 540.562 141.768 540.239V540.17C141.768 539.33 141.538 538.676 141.077 538.21C140.623 537.744 139.933 537.511 139.006 537.511C138.046 537.511 137.293 537.722 136.748 538.142C136.202 538.562 135.819 539.011 135.597 539.489L133.688 538.807C134.029 538.011 134.484 537.392 135.052 536.949C135.626 536.5 136.251 536.187 136.927 536.011C137.609 535.83 138.279 535.739 138.938 535.739C139.359 535.739 139.842 535.79 140.387 535.892C140.938 535.989 141.469 536.19 141.981 536.497C142.498 536.804 142.927 537.267 143.268 537.886C143.609 538.506 143.779 539.335 143.779 540.375V549H141.768V547.227H141.665C141.529 547.511 141.302 547.815 140.984 548.139C140.665 548.463 140.242 548.739 139.714 548.966C139.185 549.193 138.54 549.307 137.779 549.307ZM138.086 547.5C138.881 547.5 139.552 547.344 140.097 547.031C140.648 546.719 141.063 546.315 141.342 545.821C141.626 545.327 141.768 544.807 141.768 544.261V542.42C141.683 542.523 141.495 542.616 141.205 542.702C140.921 542.781 140.592 542.852 140.217 542.915C139.847 542.972 139.487 543.023 139.134 543.068C138.788 543.108 138.506 543.142 138.29 543.17C137.768 543.239 137.279 543.349 136.825 543.503C136.376 543.651 136.012 543.875 135.734 544.176C135.461 544.472 135.325 544.875 135.325 545.386C135.325 546.085 135.583 546.614 136.1 546.972C136.623 547.324 137.285 547.5 138.086 547.5ZM149.462 541.125V549H147.45V535.909H149.393V537.955H149.564C149.871 537.29 150.337 536.756 150.962 536.352C151.587 535.943 152.393 535.739 153.382 535.739C154.268 535.739 155.044 535.92 155.709 536.284C156.374 536.642 156.891 537.188 157.26 537.92C157.629 538.648 157.814 539.568 157.814 540.682V549H155.803V540.818C155.803 539.79 155.536 538.989 155.001 538.415C154.467 537.835 153.734 537.545 152.803 537.545C152.161 537.545 151.587 537.685 151.081 537.963C150.581 538.241 150.186 538.648 149.896 539.182C149.607 539.716 149.462 540.364 149.462 541.125ZM163.262 531.545V533.08C163.262 533.545 163.177 534.043 163.006 534.571C162.842 535.094 162.597 535.602 162.273 536.097C161.955 536.585 161.569 537.011 161.114 537.375L160.023 536.489C160.381 535.977 160.691 535.446 160.952 534.895C161.219 534.338 161.353 533.744 161.353 533.114V531.545H163.262ZM171.964 535.909V537.614H165.18V535.909H171.964ZM167.157 532.773H169.168V545.25C169.168 545.818 169.251 546.244 169.415 546.528C169.586 546.807 169.802 546.994 170.063 547.091C170.33 547.182 170.612 547.227 170.907 547.227C171.129 547.227 171.31 547.216 171.452 547.193C171.594 547.165 171.708 547.142 171.793 547.125L172.202 548.932C172.066 548.983 171.876 549.034 171.631 549.085C171.387 549.142 171.077 549.17 170.702 549.17C170.134 549.17 169.577 549.048 169.032 548.804C168.492 548.56 168.043 548.188 167.685 547.688C167.333 547.188 167.157 546.557 167.157 545.795V532.773ZM191.012 538.841L189.205 539.352C189.092 539.051 188.924 538.759 188.702 538.474C188.487 538.185 188.191 537.946 187.816 537.759C187.441 537.571 186.961 537.477 186.376 537.477C185.575 537.477 184.907 537.662 184.373 538.031C183.844 538.395 183.58 538.858 183.58 539.42C183.58 539.92 183.762 540.315 184.126 540.605C184.489 540.895 185.058 541.136 185.83 541.33L187.773 541.807C188.944 542.091 189.816 542.526 190.39 543.111C190.964 543.69 191.251 544.437 191.251 545.352C191.251 546.102 191.035 546.773 190.603 547.364C190.177 547.955 189.58 548.42 188.813 548.761C188.046 549.102 187.154 549.273 186.137 549.273C184.802 549.273 183.697 548.983 182.822 548.403C181.947 547.824 181.393 546.977 181.16 545.864L183.069 545.386C183.251 546.091 183.594 546.619 184.1 546.972C184.612 547.324 185.279 547.5 186.103 547.5C187.04 547.5 187.785 547.301 188.336 546.903C188.893 546.5 189.171 546.017 189.171 545.455C189.171 545 189.012 544.619 188.694 544.312C188.376 544 187.887 543.767 187.228 543.614L185.046 543.102C183.847 542.818 182.967 542.378 182.404 541.781C181.847 541.179 181.569 540.426 181.569 539.523C181.569 538.784 181.776 538.131 182.191 537.562C182.612 536.994 183.183 536.548 183.904 536.224C184.631 535.901 185.455 535.739 186.376 535.739C187.671 535.739 188.688 536.023 189.427 536.591C190.171 537.159 190.7 537.909 191.012 538.841ZM199.767 549.273C198.506 549.273 197.418 548.994 196.503 548.438C195.594 547.875 194.892 547.091 194.398 546.085C193.909 545.074 193.665 543.898 193.665 542.557C193.665 541.216 193.909 540.034 194.398 539.011C194.892 537.983 195.58 537.182 196.46 536.608C197.347 536.028 198.381 535.739 199.562 535.739C200.244 535.739 200.918 535.852 201.582 536.08C202.247 536.307 202.852 536.676 203.398 537.188C203.943 537.693 204.378 538.364 204.702 539.199C205.026 540.034 205.188 541.062 205.188 542.284V543.136H195.097V541.398H203.142C203.142 540.659 202.994 540 202.699 539.42C202.409 538.841 201.994 538.384 201.455 538.048C200.92 537.713 200.29 537.545 199.562 537.545C198.761 537.545 198.068 537.744 197.483 538.142C196.903 538.534 196.457 539.045 196.145 539.676C195.832 540.307 195.676 540.983 195.676 541.705V542.864C195.676 543.852 195.847 544.69 196.188 545.378C196.534 546.06 197.014 546.58 197.628 546.938C198.241 547.29 198.955 547.466 199.767 547.466C200.295 547.466 200.773 547.392 201.199 547.244C201.631 547.091 202.003 546.864 202.315 546.562C202.628 546.256 202.869 545.875 203.04 545.42L204.983 545.966C204.778 546.625 204.435 547.205 203.952 547.705C203.469 548.199 202.872 548.585 202.162 548.864C201.452 549.136 200.653 549.273 199.767 549.273ZM213.736 549.273C212.474 549.273 211.386 548.994 210.472 548.438C209.562 547.875 208.861 547.091 208.366 546.085C207.878 545.074 207.634 543.898 207.634 542.557C207.634 541.216 207.878 540.034 208.366 539.011C208.861 537.983 209.548 537.182 210.429 536.608C211.315 536.028 212.349 535.739 213.531 535.739C214.213 535.739 214.886 535.852 215.551 536.08C216.216 536.307 216.821 536.676 217.366 537.188C217.912 537.693 218.347 538.364 218.67 539.199C218.994 540.034 219.156 541.062 219.156 542.284V543.136H209.065V541.398H217.111C217.111 540.659 216.963 540 216.668 539.42C216.378 538.841 215.963 538.384 215.423 538.048C214.889 537.713 214.259 537.545 213.531 537.545C212.73 537.545 212.037 537.744 211.452 538.142C210.872 538.534 210.426 539.045 210.114 539.676C209.801 540.307 209.645 540.983 209.645 541.705V542.864C209.645 543.852 209.815 544.69 210.156 545.378C210.503 546.06 210.983 546.58 211.597 546.938C212.21 547.29 212.923 547.466 213.736 547.466C214.264 547.466 214.741 547.392 215.168 547.244C215.599 547.091 215.972 546.864 216.284 546.562C216.597 546.256 216.838 545.875 217.009 545.42L218.952 545.966C218.747 546.625 218.403 547.205 217.92 547.705C217.438 548.199 216.841 548.585 216.131 548.864C215.42 549.136 214.622 549.273 213.736 549.273ZM222.216 549V535.909H224.159V537.955H224.33C224.602 537.256 225.043 536.713 225.651 536.327C226.259 535.935 226.989 535.739 227.841 535.739C228.705 535.739 229.423 535.935 229.997 536.327C230.577 536.713 231.028 537.256 231.352 537.955H231.489C231.824 537.278 232.327 536.741 232.997 536.344C233.668 535.94 234.472 535.739 235.409 535.739C236.58 535.739 237.537 536.105 238.281 536.838C239.026 537.565 239.398 538.699 239.398 540.239V549H237.386V540.239C237.386 539.273 237.122 538.582 236.594 538.168C236.065 537.753 235.443 537.545 234.727 537.545C233.807 537.545 233.094 537.824 232.588 538.381C232.082 538.932 231.83 539.631 231.83 540.477V549H229.784V540.034C229.784 539.29 229.543 538.69 229.06 538.236C228.577 537.776 227.955 537.545 227.193 537.545C226.67 537.545 226.182 537.685 225.727 537.963C225.278 538.241 224.915 538.628 224.636 539.122C224.364 539.611 224.227 540.176 224.227 540.818V549H222.216ZM255.518 535.909V537.614H248.734V535.909H255.518ZM250.712 532.773H252.723V545.25C252.723 545.818 252.805 546.244 252.97 546.528C253.141 546.807 253.357 546.994 253.618 547.091C253.885 547.182 254.166 547.227 254.462 547.227C254.683 547.227 254.865 547.216 255.007 547.193C255.149 547.165 255.263 547.142 255.348 547.125L255.757 548.932C255.621 548.983 255.43 549.034 255.186 549.085C254.942 549.142 254.632 549.17 254.257 549.17C253.689 549.17 253.132 549.048 252.587 548.804C252.047 548.56 251.598 548.188 251.24 547.688C250.888 547.188 250.712 546.557 250.712 545.795V532.773ZM263.722 549.273C262.54 549.273 261.503 548.991 260.611 548.429C259.724 547.866 259.031 547.08 258.531 546.068C258.037 545.057 257.79 543.875 257.79 542.523C257.79 541.159 258.037 539.969 258.531 538.952C259.031 537.935 259.724 537.145 260.611 536.582C261.503 536.02 262.54 535.739 263.722 535.739C264.903 535.739 265.938 536.02 266.824 536.582C267.716 537.145 268.409 537.935 268.903 538.952C269.403 539.969 269.653 541.159 269.653 542.523C269.653 543.875 269.403 545.057 268.903 546.068C268.409 547.08 267.716 547.866 266.824 548.429C265.938 548.991 264.903 549.273 263.722 549.273ZM263.722 547.466C264.619 547.466 265.358 547.236 265.938 546.776C266.517 546.315 266.946 545.71 267.224 544.96C267.503 544.21 267.642 543.398 267.642 542.523C267.642 541.648 267.503 540.832 267.224 540.077C266.946 539.321 266.517 538.71 265.938 538.244C265.358 537.778 264.619 537.545 263.722 537.545C262.824 537.545 262.085 537.778 261.506 538.244C260.926 538.71 260.497 539.321 260.219 540.077C259.94 540.832 259.801 541.648 259.801 542.523C259.801 543.398 259.94 544.21 260.219 544.96C260.497 545.71 260.926 546.315 261.506 546.776C262.085 547.236 262.824 547.466 263.722 547.466ZM285.303 535.909V537.614H278.246V535.909H285.303ZM280.36 549V534.102C280.36 533.352 280.536 532.727 280.888 532.227C281.241 531.727 281.698 531.352 282.261 531.102C282.823 530.852 283.417 530.727 284.042 530.727C284.536 530.727 284.94 530.767 285.252 530.847C285.565 530.926 285.798 531 285.951 531.068L285.371 532.807C285.269 532.773 285.127 532.73 284.945 532.679C284.769 532.628 284.536 532.602 284.246 532.602C283.582 532.602 283.102 532.77 282.806 533.105C282.516 533.44 282.371 533.932 282.371 534.58V549H280.36ZM288.122 549V535.909H290.134V549H288.122ZM289.145 533.727C288.753 533.727 288.415 533.594 288.131 533.327C287.852 533.06 287.713 532.739 287.713 532.364C287.713 531.989 287.852 531.668 288.131 531.401C288.415 531.134 288.753 531 289.145 531C289.537 531 289.872 531.134 290.151 531.401C290.435 531.668 290.577 531.989 290.577 532.364C290.577 532.739 290.435 533.06 290.151 533.327C289.872 533.594 289.537 533.727 289.145 533.727ZM295.829 541.125V549H293.817V535.909H295.761V537.955H295.931C296.238 537.29 296.704 536.756 297.329 536.352C297.954 535.943 298.761 535.739 299.749 535.739C300.636 535.739 301.411 535.92 302.076 536.284C302.741 536.642 303.258 537.188 303.627 537.92C303.996 538.648 304.181 539.568 304.181 540.682V549H302.17V540.818C302.17 539.79 301.903 538.989 301.369 538.415C300.835 537.835 300.102 537.545 299.17 537.545C298.528 537.545 297.954 537.685 297.448 537.963C296.948 538.241 296.553 538.648 296.263 539.182C295.974 539.716 295.829 540.364 295.829 541.125ZM312.8 549.273C311.709 549.273 310.746 548.997 309.911 548.446C309.075 547.889 308.422 547.105 307.95 546.094C307.479 545.077 307.243 543.875 307.243 542.489C307.243 541.114 307.479 539.92 307.95 538.909C308.422 537.898 309.078 537.116 309.919 536.565C310.76 536.014 311.732 535.739 312.834 535.739C313.686 535.739 314.359 535.881 314.854 536.165C315.354 536.443 315.734 536.761 315.996 537.119C316.263 537.472 316.47 537.761 316.618 537.989H316.788V531.545H318.8V549H316.857V546.989H316.618C316.47 547.227 316.26 547.528 315.987 547.892C315.714 548.25 315.325 548.571 314.82 548.855C314.314 549.134 313.641 549.273 312.8 549.273ZM313.072 547.466C313.879 547.466 314.561 547.256 315.118 546.835C315.675 546.409 316.098 545.821 316.388 545.071C316.678 544.315 316.822 543.443 316.822 542.455C316.822 541.477 316.68 540.622 316.396 539.889C316.112 539.151 315.692 538.577 315.135 538.168C314.578 537.753 313.891 537.545 313.072 537.545C312.22 537.545 311.51 537.764 310.942 538.202C310.379 538.634 309.956 539.222 309.672 539.966C309.393 540.705 309.254 541.534 309.254 542.455C309.254 543.386 309.396 544.233 309.68 544.994C309.97 545.75 310.396 546.352 310.959 546.801C311.527 547.244 312.232 547.466 313.072 547.466ZM335.206 535.909V537.614H328.422V535.909H335.206ZM330.399 532.773H332.411V545.25C332.411 545.818 332.493 546.244 332.658 546.528C332.828 546.807 333.044 546.994 333.305 547.091C333.572 547.182 333.854 547.227 334.149 547.227C334.371 547.227 334.553 547.216 334.695 547.193C334.837 547.165 334.95 547.142 335.036 547.125L335.445 548.932C335.308 548.983 335.118 549.034 334.874 549.085C334.629 549.142 334.32 549.17 333.945 549.17C333.376 549.17 332.82 549.048 332.274 548.804C331.734 548.56 331.286 548.188 330.928 547.688C330.575 547.188 330.399 546.557 330.399 545.795V532.773ZM340.524 541.125V549H338.513V531.545H340.524V537.955H340.695C341.001 537.278 341.462 536.741 342.075 536.344C342.695 535.94 343.518 535.739 344.547 535.739C345.439 535.739 346.22 535.918 346.891 536.276C347.561 536.628 348.081 537.17 348.45 537.903C348.825 538.631 349.013 539.557 349.013 540.682V549H347.001V540.818C347.001 539.778 346.732 538.974 346.192 538.406C345.658 537.832 344.916 537.545 343.967 537.545C343.308 537.545 342.717 537.685 342.195 537.963C341.678 538.241 341.268 538.648 340.967 539.182C340.672 539.716 340.524 540.364 340.524 541.125ZM358.181 549.273C356.92 549.273 355.832 548.994 354.917 548.438C354.008 547.875 353.306 547.091 352.812 546.085C352.323 545.074 352.079 543.898 352.079 542.557C352.079 541.216 352.323 540.034 352.812 539.011C353.306 537.983 353.994 537.182 354.874 536.608C355.761 536.028 356.795 535.739 357.977 535.739C358.658 535.739 359.332 535.852 359.996 536.08C360.661 536.307 361.266 536.676 361.812 537.188C362.357 537.693 362.792 538.364 363.116 539.199C363.44 540.034 363.602 541.062 363.602 542.284V543.136H353.511V541.398H361.556C361.556 540.659 361.408 540 361.113 539.42C360.823 538.841 360.408 538.384 359.869 538.048C359.335 537.713 358.704 537.545 357.977 537.545C357.175 537.545 356.482 537.744 355.897 538.142C355.317 538.534 354.871 539.045 354.559 539.676C354.246 540.307 354.09 540.983 354.09 541.705V542.864C354.09 543.852 354.261 544.69 354.602 545.378C354.948 546.06 355.428 546.58 356.042 546.938C356.656 547.29 357.369 547.466 358.181 547.466C358.71 547.466 359.187 547.392 359.613 547.244C360.045 547.091 360.417 546.864 360.729 546.562C361.042 546.256 361.283 545.875 361.454 545.42L363.397 545.966C363.192 546.625 362.849 547.205 362.366 547.705C361.883 548.199 361.286 548.585 360.576 548.864C359.866 549.136 359.067 549.273 358.181 549.273ZM373.411 553.909V535.909H375.354V537.989H375.593C375.741 537.761 375.945 537.472 376.207 537.119C376.474 536.761 376.854 536.443 377.349 536.165C377.849 535.881 378.525 535.739 379.377 535.739C380.479 535.739 381.451 536.014 382.292 536.565C383.133 537.116 383.789 537.898 384.261 538.909C384.732 539.92 384.968 541.114 384.968 542.489C384.968 543.875 384.732 545.077 384.261 546.094C383.789 547.105 383.136 547.889 382.3 548.446C381.465 548.997 380.502 549.273 379.411 549.273C378.57 549.273 377.897 549.134 377.391 548.855C376.886 548.571 376.496 548.25 376.224 547.892C375.951 547.528 375.741 547.227 375.593 546.989H375.423V553.909H373.411ZM375.388 542.455C375.388 543.443 375.533 544.315 375.823 545.071C376.113 545.821 376.536 546.409 377.093 546.835C377.65 547.256 378.332 547.466 379.138 547.466C379.979 547.466 380.681 547.244 381.244 546.801C381.812 546.352 382.238 545.75 382.522 544.994C382.812 544.233 382.957 543.386 382.957 542.455C382.957 541.534 382.815 540.705 382.531 539.966C382.252 539.222 381.829 538.634 381.261 538.202C380.698 537.764 379.991 537.545 379.138 537.545C378.32 537.545 377.633 537.753 377.076 538.168C376.519 538.577 376.099 539.151 375.815 539.889C375.531 540.622 375.388 541.477 375.388 542.455ZM391.888 549.307C391.059 549.307 390.306 549.151 389.63 548.838C388.954 548.52 388.417 548.062 388.019 547.466C387.621 546.864 387.423 546.136 387.423 545.284C387.423 544.534 387.57 543.926 387.866 543.46C388.161 542.989 388.556 542.619 389.05 542.352C389.545 542.085 390.09 541.886 390.687 541.756C391.289 541.619 391.894 541.511 392.502 541.432C393.298 541.33 393.942 541.253 394.437 541.202C394.937 541.145 395.3 541.051 395.528 540.92C395.761 540.79 395.877 540.562 395.877 540.239V540.17C395.877 539.33 395.647 538.676 395.187 538.21C394.732 537.744 394.042 537.511 393.116 537.511C392.156 537.511 391.403 537.722 390.857 538.142C390.312 538.562 389.928 539.011 389.707 539.489L387.798 538.807C388.138 538.011 388.593 537.392 389.161 536.949C389.735 536.5 390.36 536.187 391.036 536.011C391.718 535.83 392.388 535.739 393.048 535.739C393.468 535.739 393.951 535.79 394.496 535.892C395.048 535.989 395.579 536.19 396.09 536.497C396.607 536.804 397.036 537.267 397.377 537.886C397.718 538.506 397.888 539.335 397.888 540.375V549H395.877V547.227H395.775C395.638 547.511 395.411 547.815 395.093 548.139C394.775 548.463 394.352 548.739 393.823 548.966C393.295 549.193 392.65 549.307 391.888 549.307ZM392.195 547.5C392.991 547.5 393.661 547.344 394.207 547.031C394.758 546.719 395.173 546.315 395.451 545.821C395.735 545.327 395.877 544.807 395.877 544.261V542.42C395.792 542.523 395.604 542.616 395.315 542.702C395.031 542.781 394.701 542.852 394.326 542.915C393.957 542.972 393.596 543.023 393.244 543.068C392.897 543.108 392.616 543.142 392.4 543.17C391.877 543.239 391.388 543.349 390.934 543.503C390.485 543.651 390.121 543.875 389.843 544.176C389.57 544.472 389.434 544.875 389.434 545.386C389.434 546.085 389.692 546.614 390.21 546.972C390.732 547.324 391.394 547.5 392.195 547.5ZM406.844 554.182C405.872 554.182 405.037 554.057 404.338 553.807C403.639 553.562 403.057 553.239 402.591 552.835C402.131 552.438 401.764 552.011 401.491 551.557L403.094 550.432C403.276 550.67 403.506 550.943 403.784 551.25C404.063 551.562 404.443 551.832 404.926 552.06C405.415 552.293 406.054 552.409 406.844 552.409C407.901 552.409 408.773 552.153 409.46 551.642C410.148 551.131 410.491 550.33 410.491 549.239V546.58H410.321C410.173 546.818 409.963 547.114 409.69 547.466C409.423 547.812 409.037 548.122 408.531 548.395C408.031 548.662 407.355 548.795 406.503 548.795C405.446 548.795 404.497 548.545 403.656 548.045C402.821 547.545 402.159 546.818 401.67 545.864C401.188 544.909 400.946 543.75 400.946 542.386C400.946 541.045 401.182 539.878 401.653 538.884C402.125 537.884 402.781 537.111 403.622 536.565C404.463 536.014 405.435 535.739 406.537 535.739C407.389 535.739 408.065 535.881 408.565 536.165C409.071 536.443 409.457 536.761 409.724 537.119C409.997 537.472 410.207 537.761 410.355 537.989H410.56V535.909H412.503V549.375C412.503 550.5 412.247 551.415 411.736 552.119C411.23 552.83 410.548 553.349 409.69 553.679C408.838 554.014 407.889 554.182 406.844 554.182ZM406.776 546.989C407.582 546.989 408.264 546.804 408.821 546.435C409.378 546.065 409.801 545.534 410.091 544.841C410.381 544.148 410.526 543.318 410.526 542.352C410.526 541.409 410.384 540.577 410.099 539.855C409.815 539.134 409.395 538.568 408.838 538.159C408.281 537.75 407.594 537.545 406.776 537.545C405.923 537.545 405.213 537.761 404.645 538.193C404.082 538.625 403.659 539.205 403.375 539.932C403.097 540.659 402.957 541.466 402.957 542.352C402.957 543.261 403.099 544.065 403.384 544.764C403.673 545.457 404.099 546.003 404.662 546.401C405.23 546.793 405.935 546.989 406.776 546.989ZM421.673 549.273C420.412 549.273 419.324 548.994 418.409 548.438C417.5 547.875 416.798 547.091 416.304 546.085C415.815 545.074 415.571 543.898 415.571 542.557C415.571 541.216 415.815 540.034 416.304 539.011C416.798 537.983 417.486 537.182 418.366 536.608C419.253 536.028 420.287 535.739 421.469 535.739C422.151 535.739 422.824 535.852 423.489 536.08C424.153 536.307 424.759 536.676 425.304 537.188C425.849 537.693 426.284 538.364 426.608 539.199C426.932 540.034 427.094 541.062 427.094 542.284V543.136H417.003V541.398H425.048C425.048 540.659 424.901 540 424.605 539.42C424.315 538.841 423.901 538.384 423.361 538.048C422.827 537.713 422.196 537.545 421.469 537.545C420.668 537.545 419.974 537.744 419.389 538.142C418.81 538.534 418.364 539.045 418.051 539.676C417.739 540.307 417.582 540.983 417.582 541.705V542.864C417.582 543.852 417.753 544.69 418.094 545.378C418.44 546.06 418.92 546.58 419.534 546.938C420.148 547.29 420.861 547.466 421.673 547.466C422.202 547.466 422.679 547.392 423.105 547.244C423.537 547.091 423.909 546.864 424.222 546.562C424.534 546.256 424.776 545.875 424.946 545.42L426.889 545.966C426.685 546.625 426.341 547.205 425.858 547.705C425.375 548.199 424.778 548.585 424.068 548.864C423.358 549.136 422.56 549.273 421.673 549.273ZM438.199 553.909C437.858 553.909 437.554 553.881 437.287 553.824C437.02 553.773 436.835 553.722 436.733 553.67L437.244 551.898C437.733 552.023 438.165 552.068 438.54 552.034C438.915 552 439.247 551.832 439.537 551.531C439.832 551.236 440.102 550.756 440.347 550.091L440.722 549.068L435.881 535.909H438.062L441.676 546.341H441.812L445.426 535.909H447.608L442.051 550.909C441.801 551.585 441.491 552.145 441.122 552.588C440.753 553.037 440.324 553.369 439.835 553.585C439.352 553.801 438.807 553.909 438.199 553.909ZM455.112 549.273C453.93 549.273 452.893 548.991 452.001 548.429C451.115 547.866 450.422 547.08 449.922 546.068C449.428 545.057 449.18 543.875 449.18 542.523C449.18 541.159 449.428 539.969 449.922 538.952C450.422 537.935 451.115 537.145 452.001 536.582C452.893 536.02 453.93 535.739 455.112 535.739C456.294 535.739 457.328 536.02 458.214 536.582C459.107 537.145 459.8 537.935 460.294 538.952C460.794 539.969 461.044 541.159 461.044 542.523C461.044 543.875 460.794 545.057 460.294 546.068C459.8 547.08 459.107 547.866 458.214 548.429C457.328 548.991 456.294 549.273 455.112 549.273ZM455.112 547.466C456.01 547.466 456.749 547.236 457.328 546.776C457.908 546.315 458.337 545.71 458.615 544.96C458.893 544.21 459.033 543.398 459.033 542.523C459.033 541.648 458.893 540.832 458.615 540.077C458.337 539.321 457.908 538.71 457.328 538.244C456.749 537.778 456.01 537.545 455.112 537.545C454.214 537.545 453.476 537.778 452.896 538.244C452.317 538.71 451.888 539.321 451.609 540.077C451.331 540.832 451.192 541.648 451.192 542.523C451.192 543.398 451.331 544.21 451.609 544.96C451.888 545.71 452.317 546.315 452.896 546.776C453.476 547.236 454.214 547.466 455.112 547.466ZM472.364 543.648V535.909H474.376V549H472.364V546.784H472.228C471.921 547.449 471.444 548.014 470.796 548.48C470.148 548.94 469.33 549.17 468.342 549.17C467.523 549.17 466.796 548.991 466.16 548.634C465.523 548.27 465.023 547.724 464.66 546.997C464.296 546.264 464.114 545.341 464.114 544.227V535.909H466.126V544.091C466.126 545.045 466.393 545.807 466.927 546.375C467.467 546.943 468.154 547.227 468.989 547.227C469.489 547.227 469.998 547.099 470.515 546.844C471.038 546.588 471.475 546.196 471.827 545.668C472.185 545.139 472.364 544.466 472.364 543.648ZM488.662 549.307C487.832 549.307 487.08 549.151 486.403 548.838C485.727 548.52 485.19 548.062 484.793 547.466C484.395 546.864 484.196 546.136 484.196 545.284C484.196 544.534 484.344 543.926 484.639 543.46C484.935 542.989 485.33 542.619 485.824 542.352C486.318 542.085 486.864 541.886 487.46 541.756C488.063 541.619 488.668 541.511 489.276 541.432C490.071 541.33 490.716 541.253 491.21 541.202C491.71 541.145 492.074 541.051 492.301 540.92C492.534 540.79 492.651 540.562 492.651 540.239V540.17C492.651 539.33 492.42 538.676 491.96 538.21C491.506 537.744 490.815 537.511 489.889 537.511C488.929 537.511 488.176 537.722 487.631 538.142C487.085 538.562 486.702 539.011 486.48 539.489L484.571 538.807C484.912 538.011 485.366 537.392 485.935 536.949C486.509 536.5 487.134 536.187 487.81 536.011C488.491 535.83 489.162 535.739 489.821 535.739C490.241 535.739 490.724 535.79 491.27 535.892C491.821 535.989 492.352 536.19 492.864 536.497C493.381 536.804 493.81 537.267 494.151 537.886C494.491 538.506 494.662 539.335 494.662 540.375V549H492.651V547.227H492.548C492.412 547.511 492.185 547.815 491.866 548.139C491.548 548.463 491.125 548.739 490.597 548.966C490.068 549.193 489.423 549.307 488.662 549.307ZM488.969 547.5C489.764 547.5 490.435 547.344 490.98 547.031C491.531 546.719 491.946 546.315 492.224 545.821C492.509 545.327 492.651 544.807 492.651 544.261V542.42C492.565 542.523 492.378 542.616 492.088 542.702C491.804 542.781 491.474 542.852 491.099 542.915C490.73 542.972 490.369 543.023 490.017 543.068C489.67 543.108 489.389 543.142 489.173 543.17C488.651 543.239 488.162 543.349 487.707 543.503C487.259 543.651 486.895 543.875 486.616 544.176C486.344 544.472 486.207 544.875 486.207 545.386C486.207 546.085 486.466 546.614 486.983 546.972C487.506 547.324 488.168 547.5 488.969 547.5ZM498.333 549V535.909H500.276V537.886H500.413C500.651 537.239 501.083 536.713 501.708 536.31C502.333 535.906 503.038 535.705 503.822 535.705C503.969 535.705 504.154 535.707 504.376 535.713C504.597 535.719 504.765 535.727 504.879 535.739V537.784C504.81 537.767 504.654 537.741 504.41 537.707C504.171 537.668 503.918 537.648 503.651 537.648C503.015 537.648 502.447 537.781 501.947 538.048C501.452 538.31 501.06 538.673 500.771 539.139C500.487 539.599 500.344 540.125 500.344 540.716V549H498.333ZM512.353 549.273C511.092 549.273 510.004 548.994 509.089 548.438C508.18 547.875 507.478 547.091 506.984 546.085C506.495 545.074 506.251 543.898 506.251 542.557C506.251 541.216 506.495 540.034 506.984 539.011C507.478 537.983 508.165 537.182 509.046 536.608C509.933 536.028 510.967 535.739 512.148 535.739C512.83 535.739 513.504 535.852 514.168 536.08C514.833 536.307 515.438 536.676 515.984 537.188C516.529 537.693 516.964 538.364 517.288 539.199C517.612 540.034 517.773 541.062 517.773 542.284V543.136H507.683V541.398H515.728C515.728 540.659 515.58 540 515.285 539.42C514.995 538.841 514.58 538.384 514.04 538.048C513.506 537.713 512.876 537.545 512.148 537.545C511.347 537.545 510.654 537.744 510.069 538.142C509.489 538.534 509.043 539.045 508.731 539.676C508.418 540.307 508.262 540.983 508.262 541.705V542.864C508.262 543.852 508.433 544.69 508.773 545.378C509.12 546.06 509.6 546.58 510.214 546.938C510.827 547.29 511.54 547.466 512.353 547.466C512.881 547.466 513.359 547.392 513.785 547.244C514.217 547.091 514.589 546.864 514.901 546.562C515.214 546.256 515.455 545.875 515.626 545.42L517.569 545.966C517.364 546.625 517.021 547.205 516.538 547.705C516.055 548.199 515.458 548.585 514.748 548.864C514.038 549.136 513.239 549.273 512.353 549.273ZM529.594 531.545V549H527.583V531.545H529.594ZM538.597 549.273C537.415 549.273 536.378 548.991 535.486 548.429C534.599 547.866 533.906 547.08 533.406 546.068C532.912 545.057 532.665 543.875 532.665 542.523C532.665 541.159 532.912 539.969 533.406 538.952C533.906 537.935 534.599 537.145 535.486 536.582C536.378 536.02 537.415 535.739 538.597 535.739C539.778 535.739 540.813 536.02 541.699 536.582C542.591 537.145 543.284 537.935 543.778 538.952C544.278 539.969 544.528 541.159 544.528 542.523C544.528 543.875 544.278 545.057 543.778 546.068C543.284 547.08 542.591 547.866 541.699 548.429C540.813 548.991 539.778 549.273 538.597 549.273ZM538.597 547.466C539.494 547.466 540.233 547.236 540.812 546.776C541.392 546.315 541.821 545.71 542.099 544.96C542.378 544.21 542.517 543.398 542.517 542.523C542.517 541.648 542.378 540.832 542.099 540.077C541.821 539.321 541.392 538.71 540.812 538.244C540.233 537.778 539.494 537.545 538.597 537.545C537.699 537.545 536.96 537.778 536.381 538.244C535.801 538.71 535.372 539.321 535.094 540.077C534.815 540.832 534.676 541.648 534.676 542.523C534.676 543.398 534.815 544.21 535.094 544.96C535.372 545.71 535.801 546.315 536.381 546.776C536.96 547.236 537.699 547.466 538.597 547.466ZM552.917 549.273C551.735 549.273 550.698 548.991 549.806 548.429C548.92 547.866 548.227 547.08 547.727 546.068C547.232 545.057 546.985 543.875 546.985 542.523C546.985 541.159 547.232 539.969 547.727 538.952C548.227 537.935 548.92 537.145 549.806 536.582C550.698 536.02 551.735 535.739 552.917 535.739C554.099 535.739 555.133 536.02 556.019 536.582C556.911 537.145 557.604 537.935 558.099 538.952C558.599 539.969 558.849 541.159 558.849 542.523C558.849 543.875 558.599 545.057 558.099 546.068C557.604 547.08 556.911 547.866 556.019 548.429C555.133 548.991 554.099 549.273 552.917 549.273ZM552.917 547.466C553.815 547.466 554.553 547.236 555.133 546.776C555.712 546.315 556.141 545.71 556.42 544.96C556.698 544.21 556.837 543.398 556.837 542.523C556.837 541.648 556.698 540.832 556.42 540.077C556.141 539.321 555.712 538.71 555.133 538.244C554.553 537.778 553.815 537.545 552.917 537.545C552.019 537.545 551.281 537.778 550.701 538.244C550.121 538.71 549.692 539.321 549.414 540.077C549.136 540.832 548.996 541.648 548.996 542.523C548.996 543.398 549.136 544.21 549.414 544.96C549.692 545.71 550.121 546.315 550.701 546.776C551.281 547.236 552.019 547.466 552.917 547.466ZM563.794 544.227L563.76 541.739H564.169L569.896 535.909H572.385L566.283 542.08H566.112L563.794 544.227ZM561.919 549V531.545H563.93V549H561.919ZM570.237 549L565.124 542.523L566.555 541.125L572.794 549H570.237ZM574.974 549V535.909H576.985V549H574.974ZM575.996 533.727C575.604 533.727 575.266 533.594 574.982 533.327C574.704 533.06 574.565 532.739 574.565 532.364C574.565 531.989 574.704 531.668 574.982 531.401C575.266 531.134 575.604 531 575.996 531C576.388 531 576.724 531.134 577.002 531.401C577.286 531.668 577.428 531.989 577.428 532.364C577.428 532.739 577.286 533.06 577.002 533.327C576.724 533.594 576.388 533.727 575.996 533.727ZM582.68 541.125V549H580.669V535.909H582.612V537.955H582.783C583.089 537.29 583.555 536.756 584.18 536.352C584.805 535.943 585.612 535.739 586.601 535.739C587.487 535.739 588.263 535.92 588.928 536.284C589.592 536.642 590.109 537.188 590.479 537.92C590.848 538.648 591.033 539.568 591.033 540.682V549H589.021V540.818C589.021 539.79 588.754 538.989 588.22 538.415C587.686 537.835 586.953 537.545 586.021 537.545C585.379 537.545 584.805 537.685 584.3 537.963C583.8 538.241 583.405 538.648 583.115 539.182C582.825 539.716 582.68 540.364 582.68 541.125ZM599.992 554.182C599.021 554.182 598.185 554.057 597.487 553.807C596.788 553.562 596.205 553.239 595.739 552.835C595.279 552.438 594.913 552.011 594.64 551.557L596.242 550.432C596.424 550.67 596.654 550.943 596.933 551.25C597.211 551.562 597.592 551.832 598.075 552.06C598.563 552.293 599.202 552.409 599.992 552.409C601.049 552.409 601.921 552.153 602.609 551.642C603.296 551.131 603.64 550.33 603.64 549.239V546.58H603.469C603.322 546.818 603.112 547.114 602.839 547.466C602.572 547.812 602.185 548.122 601.68 548.395C601.18 548.662 600.504 548.795 599.651 548.795C598.594 548.795 597.646 548.545 596.805 548.045C595.969 547.545 595.308 546.818 594.819 545.864C594.336 544.909 594.094 543.75 594.094 542.386C594.094 541.045 594.33 539.878 594.802 538.884C595.273 537.884 595.93 537.111 596.771 536.565C597.612 536.014 598.583 535.739 599.685 535.739C600.538 535.739 601.214 535.881 601.714 536.165C602.219 536.443 602.606 536.761 602.873 537.119C603.146 537.472 603.356 537.761 603.504 537.989H603.708V535.909H605.651V549.375C605.651 550.5 605.396 551.415 604.884 552.119C604.379 552.83 603.697 553.349 602.839 553.679C601.987 554.014 601.038 554.182 599.992 554.182ZM599.924 546.989C600.731 546.989 601.413 546.804 601.969 546.435C602.526 546.065 602.95 545.534 603.239 544.841C603.529 544.148 603.674 543.318 603.674 542.352C603.674 541.409 603.532 540.577 603.248 539.855C602.964 539.134 602.543 538.568 601.987 538.159C601.43 537.75 600.742 537.545 599.924 537.545C599.072 537.545 598.362 537.761 597.793 538.193C597.231 538.625 596.808 539.205 596.523 539.932C596.245 540.659 596.106 541.466 596.106 542.352C596.106 543.261 596.248 544.065 596.532 544.764C596.822 545.457 597.248 546.003 597.81 546.401C598.379 546.793 599.083 546.989 599.924 546.989ZM621.913 535.909V537.614H614.856V535.909H621.913ZM616.969 549V534.102C616.969 533.352 617.146 532.727 617.498 532.227C617.85 531.727 618.308 531.352 618.87 531.102C619.433 530.852 620.026 530.727 620.651 530.727C621.146 530.727 621.549 530.767 621.862 530.847C622.174 530.926 622.407 531 622.56 531.068L621.981 532.807C621.879 532.773 621.737 532.73 621.555 532.679C621.379 532.628 621.146 532.602 620.856 532.602C620.191 532.602 619.711 532.77 619.415 533.105C619.126 533.44 618.981 533.932 618.981 534.58V549H616.969ZM629.511 549.273C628.329 549.273 627.292 548.991 626.4 548.429C625.513 547.866 624.82 547.08 624.32 546.068C623.826 545.057 623.579 543.875 623.579 542.523C623.579 541.159 623.826 539.969 624.32 538.952C624.82 537.935 625.513 537.145 626.4 536.582C627.292 536.02 628.329 535.739 629.511 535.739C630.692 535.739 631.727 536.02 632.613 536.582C633.505 537.145 634.198 537.935 634.692 538.952C635.192 539.969 635.442 541.159 635.442 542.523C635.442 543.875 635.192 545.057 634.692 546.068C634.198 547.08 633.505 547.866 632.613 548.429C631.727 548.991 630.692 549.273 629.511 549.273ZM629.511 547.466C630.408 547.466 631.147 547.236 631.727 546.776C632.306 546.315 632.735 545.71 633.013 544.96C633.292 544.21 633.431 543.398 633.431 542.523C633.431 541.648 633.292 540.832 633.013 540.077C632.735 539.321 632.306 538.71 631.727 538.244C631.147 537.778 630.408 537.545 629.511 537.545C628.613 537.545 627.874 537.778 627.295 538.244C626.715 538.71 626.286 539.321 626.008 540.077C625.729 540.832 625.59 541.648 625.59 542.523C625.59 543.398 625.729 544.21 626.008 544.96C626.286 545.71 626.715 546.315 627.295 546.776C627.874 547.236 628.613 547.466 629.511 547.466ZM638.513 549V535.909H640.456V537.886H640.592C640.831 537.239 641.263 536.713 641.888 536.31C642.513 535.906 643.217 535.705 644.001 535.705C644.149 535.705 644.334 535.707 644.555 535.713C644.777 535.719 644.945 535.727 645.058 535.739V537.784C644.99 537.767 644.834 537.741 644.589 537.707C644.351 537.668 644.098 537.648 643.831 537.648C643.195 537.648 642.626 537.781 642.126 538.048C641.632 538.31 641.24 538.673 640.95 539.139C640.666 539.599 640.524 540.125 640.524 540.716V549H638.513Z" fill="black" fill-opacity="0.5"/>
<defs>
<clipPath id="clip0_363_14508">
<rect width="722" height="392" fill="white"/>
</clipPath>
</defs>
</svg>
