<svg width="25" height="26" viewBox="0 0 25 26" fill="none" xmlns="http://www.w3.org/2000/svg">
<g clip-path="url(#clip0_1306_6069)">
<rect y="2.03906" width="23.2791" height="23.2791" rx="11.6395" fill="#A3E6AD"/>
<g filter="url(#filter0_d_1306_6069)">
<path d="M17.2734 20.6797C17.938 20.8525 19.0283 21.3046 19.334 21.916L19.4004 25.3721H16.7627L16.5029 24.8262V25.3721H7.06543V24.8262L6.80566 25.3721H3.74219L3.80859 22.0889C3.86175 21.9427 3.92848 21.796 4.02148 21.6631C4.34044 21.1714 5.36393 20.8259 5.93555 20.6797L11.6777 19.2305H11.6914L17.2734 20.6797Z" fill="#4D5903"/>
<path d="M11.5849 21.6627L8.0625 20.1341C10.9336 18.9644 13.9996 19.6468 15.1738 20.1341L11.5849 21.6627Z" fill="#FFBE98"/>
<path d="M12.7688 20.8393H10.5623C10.137 20.8393 9.80469 20.4937 9.80469 20.0817V16.5061C9.80469 15.7884 10.3895 15.2168 11.094 15.2168H12.2371C12.9549 15.2168 13.5265 15.8016 13.5265 16.5061V20.0817C13.5265 20.4937 13.1809 20.8393 12.7688 20.8393Z" fill="#FFBE98"/>
<path d="M9.75977 17.3438C9.82623 17.6096 12.1469 18.7881 13.5787 17.3438H9.75977Z" fill="#FFAC7B"/>
<path d="M7.75091 14.5233C7.75091 14.5233 6.87364 14.5499 6.50146 13.2074C6.12928 11.8516 6.87364 11.8782 7.29898 12.237L7.75091 14.5233Z" fill="#F3AF91"/>
<path d="M15.3535 14.5233C15.3535 14.5233 16.2308 14.5499 16.603 13.2074C16.9751 11.8516 16.2308 11.8782 15.8054 12.237L15.3535 14.5233Z" fill="#F3AF91"/>
<path d="M15.8921 11.8025C15.8921 14.8198 14.5629 17.8371 11.745 17.8903C8.79416 17.9434 7.33203 14.8065 7.33203 11.8025C7.33203 8.78521 7.49154 6.40593 11.6121 6.44581C15.9586 6.49897 15.8921 8.78521 15.8921 11.8025Z" fill="#FFBE98"/>
<ellipse cx="13.4457" cy="11.2292" rx="0.531682" ry="0.797524" fill="#36180E"/>
<ellipse cx="9.72309" cy="11.2292" rx="0.531682" ry="0.797524" fill="#36180E"/>
<path d="M12.6817 10.0954C12.9189 9.89929 13.5658 9.57314 14.2557 9.8371" stroke="#5F220D" stroke-width="0.531682" stroke-linecap="round"/>
<path d="M10.4999 10.0954C10.2627 9.89929 9.61579 9.57314 8.92593 9.8371" stroke="#5F220D" stroke-width="0.531682" stroke-linecap="round"/>
<path d="M12.3808 16.0154C12.1227 16.1831 11.4427 16.4331 10.7876 16.0919" stroke="#B64741" stroke-width="0.265841" stroke-linecap="round"/>
<path d="M11.5163 12.0273C11.4055 12.7806 11.1393 13.4496 11.1925 13.5559C11.2589 13.6889 11.9236 13.6889 12.1229 13.5559" stroke="#F3AF91" stroke-width="0.265841" stroke-linecap="round"/>
<path d="M15.6383 12.9566C15.5971 12.8546 14.6208 16.3944 13.7541 16.567C12.8875 16.7396 13.8206 15.7828 13.6079 15.4239C13.3952 15.065 12.4515 14.5334 12.1192 14.6663C11.8932 14.7593 11.8216 14.8922 11.6008 14.8922C11.38 14.8922 11.2951 14.7593 11.0824 14.6663C10.7501 14.5201 9.80638 15.0517 9.5937 15.4239C9.38103 15.7828 10.3248 16.7133 9.44749 16.567C8.57022 16.4208 7.66304 13.156 7.66304 13.156C7.19463 12.8043 7.47617 12.7069 7.9322 15.9689C8.33096 19.0792 11.2818 19.0527 11.6141 19.0394C11.9331 19.0527 14.8972 19.0792 15.296 15.9689C15.6948 12.6858 16.17 12.6243 15.6383 12.9566ZM11.6141 17.6753C11.6141 17.6753 10.4766 17.3625 10.3215 16.567C10.2404 16.1514 9.92269 15.4156 10.0722 15.5037C10.2217 15.5917 11.5875 15.3575 11.5875 15.3575C11.5875 15.3442 11.6008 15.3176 11.6008 15.3176C11.6008 15.3176 11.6008 15.3442 11.6141 15.3575C11.6141 15.3575 12.9466 15.5834 13.1294 15.5037C13.3122 15.4239 13.0615 16.1515 12.9799 16.567C12.8254 17.3537 11.6141 17.6753 11.6141 17.6753Z" fill="#5F220D"/>
<path d="M11.5852 21.6635L8.25954 20.002L7.73047 20.2412L9.92236 22.3945L11.5852 21.6635Z" fill="white"/>
<path d="M11.5848 21.6635L14.9104 20.002L15.4395 20.2412L13.2476 22.3945L11.5848 21.6635Z" fill="white"/>
<path d="M11.5859 22.1289C11.6592 22.1291 11.7188 22.1884 11.7188 22.2617C11.7187 22.335 11.6592 22.3944 11.5859 22.3945C11.5125 22.3945 11.4532 22.3351 11.4531 22.2617C11.4531 22.1883 11.5125 22.1289 11.5859 22.1289ZM11.5391 22.2754C11.5207 22.2754 11.5059 22.2902 11.5059 22.3086C11.5059 22.3269 11.5207 22.3418 11.5391 22.3418C11.5574 22.3418 11.5722 22.3269 11.5723 22.3086C11.5723 22.2903 11.5574 22.2754 11.5391 22.2754ZM11.6328 22.2754C11.6145 22.2754 11.5996 22.2902 11.5996 22.3086C11.5997 22.3269 11.6145 22.3418 11.6328 22.3418C11.651 22.3416 11.666 22.3268 11.666 22.3086C11.666 22.2904 11.651 22.2756 11.6328 22.2754ZM11.5391 22.1953C11.5207 22.1953 11.5059 22.2102 11.5059 22.2285C11.5059 22.2469 11.5207 22.2617 11.5391 22.2617C11.5574 22.2617 11.5723 22.2468 11.5723 22.2285C11.5723 22.2102 11.5574 22.1953 11.5391 22.1953ZM11.6328 22.1953C11.6145 22.1953 11.5996 22.2102 11.5996 22.2285C11.5996 22.2469 11.6145 22.2617 11.6328 22.2617C11.651 22.2615 11.666 22.2467 11.666 22.2285C11.666 22.2103 11.651 22.1955 11.6328 22.1953Z" fill="#FFBE98"/>
<path d="M11.5859 23.0586C11.6592 23.0587 11.7188 23.1191 11.7188 23.1924C11.7185 23.2655 11.6591 23.3251 11.5859 23.3252C11.5127 23.3252 11.4534 23.2656 11.4531 23.1924C11.4531 23.119 11.5125 23.0586 11.5859 23.0586ZM11.5391 23.2051C11.5207 23.2051 11.5059 23.2199 11.5059 23.2383C11.5061 23.2565 11.5208 23.2715 11.5391 23.2715C11.5573 23.2715 11.5721 23.2564 11.5723 23.2383C11.5723 23.2199 11.5574 23.2051 11.5391 23.2051ZM11.6328 23.2051C11.6145 23.2051 11.5996 23.2199 11.5996 23.2383C11.5998 23.2565 11.6146 23.2715 11.6328 23.2715C11.6509 23.2713 11.6658 23.2563 11.666 23.2383C11.666 23.22 11.651 23.2053 11.6328 23.2051ZM11.5391 23.126C11.5207 23.126 11.5059 23.1408 11.5059 23.1592C11.5061 23.1773 11.5209 23.1924 11.5391 23.1924C11.5573 23.1924 11.572 23.1773 11.5723 23.1592C11.5723 23.1408 11.5574 23.126 11.5391 23.126ZM11.6328 23.126C11.6145 23.126 11.5996 23.1408 11.5996 23.1592C11.5998 23.1773 11.6146 23.1924 11.6328 23.1924C11.6509 23.1922 11.6658 23.1772 11.666 23.1592C11.666 23.1409 11.651 23.1262 11.6328 23.126Z" fill="#FFBE98"/>
<path d="M11.5859 23.9902C11.6591 23.9904 11.7186 24.0498 11.7188 24.123C11.7188 24.1964 11.6592 24.2557 11.5859 24.2559C11.5125 24.2559 11.4531 24.1965 11.4531 24.123C11.4533 24.0497 11.5126 23.9902 11.5859 23.9902ZM11.5391 24.1357C11.5208 24.1357 11.506 24.1507 11.5059 24.1689C11.5059 24.1873 11.5207 24.2021 11.5391 24.2021C11.5574 24.2021 11.5723 24.1873 11.5723 24.1689C11.5721 24.1508 11.5573 24.1358 11.5391 24.1357ZM11.6328 24.1357C11.6146 24.1357 11.5998 24.1507 11.5996 24.1689C11.5996 24.1873 11.6145 24.2021 11.6328 24.2021C11.651 24.202 11.666 24.1872 11.666 24.1689C11.6658 24.1508 11.6509 24.1359 11.6328 24.1357ZM11.5391 24.0566C11.5208 24.0566 11.506 24.0716 11.5059 24.0898C11.5059 24.1082 11.5207 24.123 11.5391 24.123C11.5574 24.123 11.5723 24.1082 11.5723 24.0898C11.5721 24.0716 11.5573 24.0567 11.5391 24.0566ZM11.6328 24.0566C11.6146 24.0566 11.5998 24.0716 11.5996 24.0898C11.5996 24.1082 11.6145 24.123 11.6328 24.123C11.651 24.1229 11.666 24.1081 11.666 24.0898C11.6659 24.0717 11.6509 24.0568 11.6328 24.0566Z" fill="#FFBE98"/>
<path d="M11.5859 24.9219C11.6592 24.922 11.7188 24.9814 11.7188 25.0547C11.7187 25.128 11.6592 25.1874 11.5859 25.1875C11.5125 25.1875 11.4531 25.1281 11.4531 25.0547C11.4531 24.9813 11.5125 24.9219 11.5859 24.9219ZM11.5391 25.0684C11.5207 25.0684 11.5059 25.0832 11.5059 25.1016C11.5059 25.1199 11.5207 25.1348 11.5391 25.1348C11.5574 25.1347 11.5722 25.1199 11.5723 25.1016C11.5723 25.0832 11.5574 25.0684 11.5391 25.0684ZM11.6328 25.0684C11.6145 25.0684 11.5996 25.0832 11.5996 25.1016C11.5997 25.1199 11.6145 25.1348 11.6328 25.1348C11.651 25.1346 11.666 25.1198 11.666 25.1016C11.666 25.0833 11.651 25.0685 11.6328 25.0684ZM11.5391 24.9883C11.5207 24.9883 11.5059 25.0031 11.5059 25.0215C11.5059 25.0398 11.5207 25.0547 11.5391 25.0547C11.5574 25.0547 11.5723 25.0398 11.5723 25.0215C11.5723 25.0031 11.5574 24.9883 11.5391 24.9883ZM11.6328 24.9883C11.6145 24.9883 11.5996 25.0031 11.5996 25.0215C11.5996 25.0398 11.6145 25.0547 11.6328 25.0547C11.651 25.0545 11.666 25.0397 11.666 25.0215C11.666 25.0032 11.651 24.9885 11.6328 24.9883Z" fill="#FFBE98"/>
<path d="M11.5618 4.58249C16.5862 2.98744 16.1822 7.29445 16.3203 10.1519C16.3764 11.3111 15.9723 13.0628 15.7222 13.0628C15.3742 13.0628 15.9482 11.5608 15.7621 9.9259C15.3766 6.45667 13.3163 8.53024 11.5884 8.50365C9.80722 8.47707 7.64062 6.49655 7.38807 9.87273C7.21527 12.1856 7.95467 13.3873 7.48111 13.1825C7.266 13.0894 6.96272 11.6273 6.81651 10.6968C6.80322 10.5639 6.80322 10.4177 6.80322 10.2848V10.2848C6.80322 7.13457 6.53737 6.17755 11.5618 4.58249Z" fill="#5F220D"/>
</g>
</g>
<path d="M21.0371 0.911133C22.9343 0.911133 24.4725 2.44856 24.4727 4.3457C24.4727 6.24296 22.9344 7.78125 21.0371 7.78125C19.14 7.78112 17.6025 6.24288 17.6025 4.3457C17.6027 2.44864 19.14 0.91126 21.0371 0.911133Z" fill="#02BE6A" stroke="white" stroke-width="0.458037"/>
<path d="M22.55 2.13455C22.4772 2.09408 22.3971 2.06836 22.3144 2.05884C22.2316 2.04932 22.1478 2.0562 22.0677 2.07908C21.9876 2.10196 21.9128 2.14039 21.8476 2.19218C21.7824 2.24397 21.728 2.30811 21.6875 2.38092L20.5102 4.49966L19.8364 3.82586C19.7779 3.76529 19.7079 3.71698 19.6306 3.68374C19.5532 3.65051 19.47 3.63301 19.3858 3.63228C19.3016 3.63155 19.2181 3.6476 19.1401 3.67948C19.0622 3.71137 18.9914 3.75846 18.9318 3.818C18.8723 3.87754 18.8252 3.94835 18.7933 4.02629C18.7614 4.10422 18.7454 4.18773 18.7461 4.27193C18.7468 4.35614 18.7643 4.43935 18.7976 4.51672C18.8308 4.59409 18.8791 4.66407 18.9397 4.72257L20.208 5.9909C20.3279 6.11107 20.4896 6.17702 20.6564 6.17702L20.7442 6.17068C20.8414 6.15708 20.9341 6.12111 21.0151 6.06559C21.096 6.01008 21.1629 5.93653 21.2106 5.85075L22.796 2.99701C22.8365 2.92422 22.8623 2.84418 22.8718 2.76144C22.8813 2.67871 22.8745 2.5949 22.8516 2.51482C22.8288 2.43473 22.7904 2.35993 22.7386 2.29468C22.6869 2.22943 22.6228 2.17502 22.55 2.13455Z" fill="white"/>
<defs>
<filter id="filter0_d_1306_6069" x="2.25589" y="3.78711" width="18.7929" height="22.166" filterUnits="userSpaceOnUse" color-interpolation-filters="sRGB">
<feFlood flood-opacity="0" result="BackgroundImageFix"/>
<feColorMatrix in="SourceAlpha" type="matrix" values="0 0 0 0 0 0 0 0 0 0 0 0 0 0 0 0 0 0 127 0" result="hardAlpha"/>
<feOffset dy="0.290988"/>
<feGaussianBlur stdDeviation="0.145494"/>
<feComposite in2="hardAlpha" operator="out"/>
<feColorMatrix type="matrix" values="0 0 0 0 0 0 0 0 0 0 0 0 0 0 0 0 0 0 0.25 0"/>
<feBlend mode="normal" in2="BackgroundImageFix" result="effect1_dropShadow_1306_6069"/>
<feBlend mode="normal" in="SourceGraphic" in2="effect1_dropShadow_1306_6069" result="shape"/>
</filter>
<clipPath id="clip0_1306_6069">
<rect y="2.03906" width="23.2791" height="23.2791" rx="11.6395" fill="white"/>
</clipPath>
</defs>
</svg>
